<?xml version="1.0" encoding="UTF-8" standalone="no"?>
<svg width="28px" height="11px" viewBox="0 0 28 11" version="1.1" xmlns="http://www.w3.org/2000/svg" xmlns:xlink="http://www.w3.org/1999/xlink">
    <!-- Generator: Sketch 49.3 (51167) - http://www.bohemiancoding.com/sketch -->
    <title>Artboard</title>
    <desc>Created with Sketch.</desc>
    <defs></defs>
    <g id="Artboard" stroke="none" stroke-width="1" fill="none" fill-rule="evenodd">
        <path d="M27.874,8 L26.796,8 L26.796,0.069 L27.874,0.069 L27.874,8 Z M24.882,0.069 L24.882,6.273 C24.882,7.45 24.387,8 23.111,8 L22.902,8 L22.902,7.12 L23.111,7.12 C23.573,7.12 23.859,6.889 23.859,6.273 L23.859,0.069 L24.882,0.069 Z M16.203,4.469 L16.313,3.754 C17.457,2.852 18.601,2.291 19.943,2.291 C21.483,2.291 22.528,3.083 22.528,4.238 C22.528,5.085 21.879,5.91 20.724,6.658 C21.186,6.856 21.747,7.12 22.946,7.12 L23.133,7.12 L23.133,8 L22.781,8 C21.56,8 20.416,7.648 19.668,7.252 C18.854,7.659 17.611,8 16.577,8 L15.609,8 L15.609,7.12 L16.236,7.12 C17.127,7.12 17.941,6.878 18.524,6.636 C17.171,5.679 16.819,5.36 16.203,4.469 Z M19.943,3.138 C19.041,3.138 18.106,3.677 17.358,4.304 C17.787,4.865 18.656,5.503 19.668,6.097 C20.988,5.426 21.472,4.766 21.472,4.293 C21.472,3.666 20.856,3.138 19.943,3.138 Z M14.729,7.12 L15.829,7.12 L15.829,8 L14.729,8 L14.729,8.121 C14.729,10.024 13.607,10.453 12.144,10.453 C11.704,10.453 11.209,10.299 10.989,10.233 L11.198,9.397 C11.495,9.496 11.825,9.584 12.254,9.584 C13.101,9.584 13.706,9.221 13.706,8.297 L13.706,3.259 L14.729,3.259 L14.729,7.12 Z M11.231,3.259 L11.231,6.273 C11.231,7.45 10.736,8 9.46,8 L9.251,8 L9.251,7.12 L9.46,7.12 C9.922,7.12 10.208,6.889 10.208,6.273 L10.208,3.259 L11.231,3.259 Z M10.164,8.715 C10.516,8.715 10.747,8.924 10.747,9.276 C10.747,9.617 10.516,9.837 10.164,9.837 C9.834,9.837 9.603,9.617 9.603,9.276 C9.603,8.924 9.834,8.715 10.164,8.715 Z M8.514,7.12 L9.471,7.12 L9.471,8 L9.119,8 C8.723,8 8.492,7.67 8.492,7.67 L8.074,8 L6.534,8 L6.534,7.12 L7.491,7.12 L7.491,3.259 L8.514,3.259 L8.514,7.12 Z M6.787,8.715 C7.139,8.715 7.37,8.924 7.37,9.276 C7.37,9.617 7.139,9.837 6.787,9.837 C6.457,9.837 6.226,9.617 6.226,9.276 C6.226,8.924 6.457,8.715 6.787,8.715 Z M8.074,8.715 C8.426,8.715 8.657,8.924 8.657,9.276 C8.657,9.617 8.426,9.837 8.074,9.837 C7.744,9.837 7.513,9.617 7.513,9.276 C7.513,8.924 7.744,8.715 8.074,8.715 Z M2.64,0.377 C2.992,0.377 3.223,0.586 3.223,0.938 C3.223,1.279 2.992,1.499 2.64,1.499 C2.31,1.499 2.079,1.279 2.079,0.938 C2.079,0.586 2.31,0.377 2.64,0.377 Z M3.927,0.377 C4.279,0.377 4.51,0.586 4.51,0.938 C4.51,1.279 4.279,1.499 3.927,1.499 C3.597,1.499 3.366,1.279 3.366,0.938 C3.366,0.586 3.597,0.377 3.927,0.377 Z M6.006,2.643 L5.401,3.413 L5.401,7.12 L6.754,7.12 L6.754,8 L4.785,8 L4.4,7.67 C3.927,8.044 3.421,8.187 3.036,8.187 C1.199,8.187 0.484,7.01 0.484,5.217 C0.484,3.633 1.419,2.28 3.3,2.28 C3.784,2.28 4.015,2.313 4.741,2.39 L5.159,1.972 L6.006,2.643 Z M4.378,6.823 L4.378,3.248 C4.125,3.16 3.751,3.127 3.432,3.127 C2.475,3.127 1.54,3.798 1.54,5.217 C1.54,6.856 2.266,7.34 3.025,7.34 C3.652,7.34 4.092,7.153 4.378,6.823 Z" id="العربية" fill="#888888"></path>
    </g>
</svg>