<?xml version="1.0" encoding="UTF-8" standalone="no"?>
<svg width="149px" height="38px" viewBox="0 0 149 38" version="1.1" xmlns="http://www.w3.org/2000/svg" xmlns:xlink="http://www.w3.org/1999/xlink">
    <!-- Generator: sketchtool 48.2 (47327) - http://www.bohemiancoding.com/sketch -->
    <title>ECBCA7B7-F627-4A0E-B16C-C59D52AB716C</title>
    <desc>Created with sketchtool.</desc>
    <defs>
        <polygon id="path-1" points="0.183189655 0.0760775862 40.7431034 0.0760775862 40.7431034 7.09913793 0.183189655 7.09913793"></polygon>
    </defs>
    <g id="Footer" stroke="none" stroke-width="1" fill="none" fill-rule="evenodd" transform="translate(-1032.000000, -68.000000)">
        <g id="alj_motors_log_eng_pos_reg">
            <g transform="translate(1032.000000, 68.000000)">
                <g id="Group-8" transform="translate(78.232759, 30.387931)">
                    <mask id="mask-2" fill="white">
                        <use xlink:href="#path-1"></use>
                    </mask>
                    <g id="Clip-2"></g>
                    <polyline id="Fill-1" fill="#4D4E4C" mask="url(#mask-2)" points="3.40150862 2.83814655 1.24353448 0.17112069 0.183189655 0.17112069 0.183189655 7.03577586 1.35064655 7.03577586 1.35064655 2.06034483 3.25948276 4.43232759 3.53922414 4.43232759 5.4237069 2.06293103 5.4237069 7.03577586 6.59590517 7.03577586 6.59590517 0.17112069 5.54655172 0.17112069 3.40150862 2.83814655"></polyline>
                    <path d="M11.6631466,6.02090517 C10.9568966,6.02090517 10.3614224,5.79073276 9.89288793,5.33706897 C9.42564655,4.88448276 9.1887931,4.30840517 9.1887931,3.62478448 C9.1887931,2.91896552 9.42478448,2.33168103 9.89094828,1.87931034 C10.3575431,1.42564655 10.9633621,1.19568966 11.6915948,1.19568966 C12.3821121,1.19568966 12.9719828,1.42801724 13.4452586,1.88663793 C13.9172414,2.34396552 14.156681,2.91594828 14.156681,3.58685345 C14.156681,4.27672414 13.9170259,4.86099138 13.4448276,5.32327586 C12.9715517,5.7862069 12.3719828,6.02090517 11.6631466,6.02090517 Z M11.6534483,0.0760775862 C10.6019397,0.0760775862 9.71896552,0.414439655 9.02931034,1.08211207 C8.33814655,1.75021552 7.98793103,2.60581897 7.98793103,3.62478448 C7.98793103,4.61875 8.33599138,5.4575431 9.02219828,6.11810345 C9.70732759,6.77758621 10.575,7.11206897 11.6012931,7.11206897 C12.6741379,7.11206897 13.5765086,6.77801724 14.2836207,6.11939655 C14.9928879,5.45840517 15.3523707,4.61293103 15.3523707,3.60581897 C15.3523707,2.59913793 14.9963362,1.74978448 14.2939655,1.08146552 C13.5931034,0.414224138 12.7047414,0.0760775862 11.6534483,0.0760775862 Z" id="Fill-3" fill="#4D4E4C" mask="url(#mask-2)"></path>
                    <polyline id="Fill-4" fill="#4D4E4C" mask="url(#mask-2)" points="15.7853448 1.22435345 18.0650862 1.22435345 18.0650862 7.03577586 19.2375 7.03577586 19.2375 1.22435345 21.5553879 1.22435345 21.5553879 0.161637931 15.7853448 0.161637931 15.7853448 1.22435345"></polyline>
                    <path d="M25.6702586,6.02090517 C24.9640086,6.02090517 24.3685345,5.79073276 23.9,5.33706897 C23.4329741,4.88448276 23.1959052,4.30840517 23.1959052,3.62478448 C23.1959052,2.91896552 23.4321121,2.33168103 23.8980603,1.87931034 C24.3646552,1.42564655 24.9704741,1.19568966 25.6987069,1.19568966 C26.3892241,1.19568966 26.9793103,1.42801724 27.4523707,1.88663793 C27.9243534,2.34396552 28.1637931,2.91594828 28.1637931,3.58685345 C28.1637931,4.27672414 27.9241379,4.86099138 27.4519397,5.32327586 C26.9786638,5.7862069 26.3790948,6.02090517 25.6702586,6.02090517 Z M25.6605603,0.0760775862 C24.6092672,0.0760775862 23.7260776,0.414439655 23.0364224,1.08211207 C22.3454741,1.75021552 21.9952586,2.60581897 21.9952586,3.62478448 C21.9952586,4.61875 22.3431034,5.4575431 23.0293103,6.11810345 C23.7144397,6.77758621 24.5823276,7.11206897 25.6084052,7.11206897 C26.68125,7.11206897 27.5836207,6.77801724 28.2909483,6.11939655 C29.0002155,5.45840517 29.3596983,4.61293103 29.3596983,3.60581897 C29.3596983,2.59913793 29.0034483,1.74978448 28.3010776,1.08146552 C27.6002155,0.414224138 26.7118534,0.0760775862 25.6605603,0.0760775862 Z" id="Fill-5" fill="#4D4E4C" mask="url(#mask-2)"></path>
                    <path d="M31.9465517,1.19568966 L32.124569,1.19568966 C32.5765086,1.19568966 32.9019397,1.22887931 33.0911638,1.29461207 C33.2711207,1.35689655 33.4064655,1.46034483 33.5051724,1.61099138 C33.6053879,1.76443966 33.6540948,1.93103448 33.6540948,2.12090517 C33.6540948,2.3125 33.6088362,2.48512931 33.5193966,2.63426724 C33.4301724,2.78318966 33.3088362,2.89137931 33.1480603,2.96551724 C32.9838362,3.04094828 32.6648707,3.07931034 32.2006466,3.07931034 L31.9465517,3.07931034 L31.9465517,1.19568966 Z M35.1959052,5.54375 C34.8267241,4.9424569 34.5353448,4.51357759 34.3299569,4.26939655 C34.1709052,4.08081897 34.0068966,3.92025862 33.8407328,3.79094828 C34.137069,3.64612069 34.3737069,3.44655172 34.5456897,3.19547414 C34.7508621,2.89590517 34.8549569,2.5375 34.8549569,2.13038793 C34.8549569,1.53146552 34.6426724,1.04913793 34.2241379,0.69612069 C33.8109914,0.34762931 33.2487069,0.17112069 32.5530172,0.17112069 L30.7790948,0.17112069 L30.7790948,7.03577586 L31.9465517,7.03577586 L31.9465517,4.14202586 L32.0868534,4.14202586 C32.45,4.14202586 32.6206897,4.19310345 32.7002155,4.23577586 C32.8226293,4.30215517 32.9633621,4.41357759 33.1189655,4.56702586 C33.2775862,4.7237069 33.4551724,4.93836207 33.6431034,5.1987069 L34.2601293,6.20948276 L34.4471983,6.47349138 C34.4726293,6.50775862 34.4898707,6.53211207 34.5006466,6.54935345 L34.8224138,7.03577586 L36.2271552,7.03577586 L35.7478448,6.38857759 C35.6101293,6.20064655 35.4243534,5.91637931 35.1959052,5.54375 Z" id="Fill-6" fill="#4D4E4C" mask="url(#mask-2)"></path>
                    <path d="M39.4737069,3.2625 L38.7463362,2.83211207 C38.4318966,2.64784483 38.2023707,2.47155172 38.0635776,2.30775862 C37.9321121,2.15237069 37.868319,1.99224138 37.868319,1.81810345 C37.868319,1.62866379 37.9517241,1.47672414 38.1234914,1.35301724 C38.3036638,1.22349138 38.5400862,1.1575431 38.8267241,1.1575431 C39.3471983,1.1575431 39.8424569,1.3799569 40.2987069,1.81875 L40.48125,1.99439655 L40.48125,0.603448276 L40.4336207,0.571336207 C39.9547414,0.248922414 39.4204741,0.0853448276 38.8456897,0.0853448276 C38.2403017,0.0853448276 37.7394397,0.259698276 37.3577586,0.603232759 C36.9724138,0.949784483 36.7771552,1.40603448 36.7771552,1.95905172 C36.7771552,2.32974138 36.880819,2.6625 37.0851293,2.94762931 C37.2846983,3.2262931 37.6211207,3.5112069 38.0853448,3.79461207 L38.8077586,4.23383621 C39.3551724,4.57413793 39.6327586,4.93081897 39.6327586,5.29375 C39.6327586,5.51206897 39.5480603,5.68900862 39.3737069,5.83491379 C39.1963362,5.98362069 38.9689655,6.05883621 38.6982759,6.05883621 C38.0601293,6.05883621 37.487931,5.74396552 36.9978448,5.12306034 L36.8053879,4.87931034 L36.8053879,6.45237069 L36.8487069,6.48491379 C37.4045259,6.90107759 38.0299569,7.11206897 38.7077586,7.11206897 C39.3043103,7.11206897 39.7974138,6.93426724 40.1732759,6.58318966 C40.5512931,6.23038793 40.7431034,5.76681034 40.7431034,5.2049569 C40.7431034,4.41939655 40.3159483,3.76594828 39.4737069,3.2625" id="Fill-7" fill="#4D4E4C" mask="url(#mask-2)"></path>
                </g>
                <path d="M58.3644397,17.2168103 L59.5603448,17.2168103 L59.5603448,15.1331897 L60.8502155,15.1331897 C61.1607759,15.1331897 61.4137931,15.3961207 61.4137931,15.700431 L61.4137931,17.2168103 C61.4137931,17.2168103 62.9038793,17.2198276 63.0935345,17.2198276 C63.0935345,17.6364224 63.0952586,18.593319 63.0952586,18.593319 L61.4137931,18.593319 L61.4137931,22.1081897 C61.4137931,23.1668103 61.6303879,23.4443966 62.4247845,23.4443966 C62.5959052,23.4443966 62.7060345,23.431681 62.9387931,23.3530172 L62.9387931,24.7383621 C62.5484914,24.8178879 62.224569,24.8517241 61.8502155,24.8517241 C60.9170259,24.8517241 60.2801724,24.6146552 59.919181,24.1480603 C59.6219828,23.7790948 59.5635776,23.4657328 59.5635776,22.3122845 L59.5635776,18.593319 L58.3644397,18.593319 L58.3644397,17.2168103" id="Fill-9" fill="#4D4E4C"></path>
                <path d="M13.7073276,23.3099138 C14.0030172,23.3366379 14.1704741,23.3579741 14.4209052,23.3579741 C16.1155172,23.3579741 17.0047414,22.5146552 17.0047414,20.8635776 C17.0047414,19.3713362 16.2228448,18.5221983 14.8579741,18.5221983 C14.4663793,18.5221983 14.1704741,18.5616379 13.7073276,18.7415948 L13.7073276,23.3099138 Z M11.8549569,13.0814655 L13.1357759,13.0814655 C13.4780172,13.0814655 13.7073276,13.3631466 13.7073276,13.6405172 L13.7073276,17.331681 C14.3265086,17.1112069 14.8116379,17.0232759 15.3831897,17.0232759 C17.5338362,17.0232759 18.8866379,18.4670259 18.8866379,20.7689655 C18.8866379,23.4010776 17.1877155,24.8493534 14.0956897,24.8493534 C13.3795259,24.8493534 12.8217672,24.7872845 11.8549569,24.6146552 L11.8549569,13.0814655 Z" id="Fill-10" fill="#4D4E4C"></path>
                <path d="M25.15625,18.6875 C24.8148707,18.5885776 24.5159483,18.5387931 24.1275862,18.5387931 C22.6657328,18.5387931 21.7943966,19.4493534 21.7943966,20.9918103 C21.7943966,22.5146552 22.599569,23.3726293 24.0644397,23.3726293 C24.4739224,23.3726293 24.7685345,23.3226293 25.15625,23.2109914 L25.15625,18.6875 Z M25.15625,13.0814655 L26.4331897,13.0814655 C26.7681034,13.0814655 27.0071121,13.3392241 27.0071121,13.650431 L27.0071121,24.5400862 C25.8713362,24.7739224 24.9846983,24.8657328 24.1127155,24.8657328 C21.3594828,24.8657328 19.9103448,23.5551724 19.9103448,21.0627155 C19.9103448,18.6107759 21.4829741,17.050431 23.9459052,17.050431 C24.4088362,17.050431 24.7344828,17.0846983 25.15625,17.1956897 L25.15625,13.0814655 Z" id="Fill-11" fill="#4D4E4C"></path>
                <path d="M30.3,17.2198276 L30.3,21.6896552 C30.3,22.8584052 30.6872845,23.2489224 31.8734914,23.2489224 C32.2978448,23.2489224 32.6549569,23.2103448 33.1019397,23.1411638 L33.1019397,17.2198276 L34.9556034,17.2198276 L34.9556034,24.4926724 C33.5842672,24.7575431 32.7127155,24.8493534 31.7189655,24.8493534 C30.5185345,24.8493534 29.6913793,24.6146552 29.1650862,24.1480603 C28.6336207,23.6465517 28.4512931,23.0280172 28.4512931,21.7646552 L28.4512931,17.2198276 L30.3,17.2198276" id="Fill-12" fill="#4D4E4C"></path>
                <path d="M36.4084052,13.0814655 L37.6836207,13.0814655 C38.0198276,13.0814655 38.2590517,13.3452586 38.2590517,13.6471983 L38.2590517,24.7575431 L36.4084052,24.7575431 L36.4084052,13.0814655" id="Fill-13" fill="#4D4E4C"></path>
                <path d="M116.653879,13.0814655 L117.928879,13.0814655 C118.263578,13.0814655 118.502586,13.3452586 118.502586,13.6471983 L118.502586,24.7575431 L116.653879,24.7575431 L116.653879,13.0814655" id="Fill-14" fill="#4D4E4C"></path>
                <path d="M42.9075431,13.0814655 L44.2976293,13.0814655 C44.6359914,13.0814655 44.8668103,13.3452586 44.8668103,13.6471983 L44.8668103,22.9943966 L49.4357759,22.9943966 L49.4357759,24.7575431 L42.9075431,24.7575431 L42.9075431,13.0814655" id="Fill-15" fill="#4D4E4C"></path>
                <path d="M64.2153017,17.2198276 C64.925431,17.2198276 65.8165948,17.2168103 66.0670259,17.2168103 L66.0670259,24.7575431 L64.2153017,24.7575431 L64.2153017,17.2198276 Z M64.2047414,15.9135776 L66.0724138,15.9135776 L66.0724138,14.5325431 L64.2047414,14.5325431 L64.2047414,15.9135776 Z" id="Fill-16" fill="#4D4E4C"></path>
                <path d="M78.2282328,13.0713362 C78.5482759,13.0713362 78.7909483,13.3392241 78.7909483,13.6405172 L78.7909483,21.3640086 C78.7909483,23.037931 78.5920259,25.930819 75.7390086,27.2060345 C75.4349138,26.6752155 75.0127155,25.9344828 74.7786638,25.5155172 C75.5392241,25.1021552 76.0198276,24.681681 76.3280172,24.1144397 C76.7178879,23.3834052 76.8237069,22.5275862 76.8237069,20.2853448 L76.8237069,13.0713362 L78.2282328,13.0713362" id="Fill-17" fill="#4D4E4C"></path>
                <path d="M88.4924569,17.2198276 C89.8590517,17.2198276 92.2099138,16.6982759 93.8622845,17.3948276 C94.175,17.2980603 95.2519397,17.0258621 96.4297414,17.0258621 C99.1579741,17.0258621 99.4883621,18.4543103 99.4883621,19.8383621 L99.4883621,24.7575431 L97.6394397,24.7575431 L97.6394397,19.9659483 C97.6394397,18.6368534 96.587069,18.2443966 94.9758621,18.6107759 C94.9758621,19.0234914 94.9646552,24.7575431 94.9646552,24.7575431 L93.1170259,24.7575431 L93.1170259,19.9782328 C93.1170259,18.9314655 92.493319,18.1747845 90.3467672,18.6228448 L90.3467672,24.7575431 L88.4924569,24.7575431 L88.4924569,17.2198276" id="Fill-18" fill="#4D4E4C"></path>
                <path d="M6.93211207,14.2446121 C6.79849138,13.9237069 6.61637931,13.6471983 6.05409483,13.6471983 L4.51724138,13.6471983 C2.70538793,17.7918103 1.49159483,20.7482759 0,24.7575431 L2.08383621,24.7575431 C3.02974138,22.056681 4.35797414,18.5829741 5.55043103,15.5778017 C6.01702586,16.8788793 6.67478448,18.85 6.90797414,19.6646552 L5.16918103,19.6646552 L4.6012931,21.2413793 L7.43943966,21.2413793 C7.73340517,22.1135776 8.28362069,23.7665948 8.60366379,24.7575431 L10.8181034,24.7575431 C9.36681034,20.6189655 7.88060345,16.5536638 6.93211207,14.2446121" id="Fill-19" fill="#4D4E4C"></path>
                <path d="M105.784052,20.1088362 C105.707112,19.0556034 105.179095,18.4709052 104.173276,18.4709052 C103.103879,18.4709052 102.502586,19.1681034 102.358621,20.1088362 L105.784052,20.1088362 Z M102.358621,21.3831897 C102.65194,24.1415948 106.131681,23.5267241 107.186638,22.5614224 L107.186638,24.1043103 C106.268966,24.6400862 105.487069,24.855819 104.427586,24.855819 C102.003233,24.855819 100.570259,23.4243534 100.570259,21.0017241 C100.570259,18.6131466 102.030388,17.0372845 104.254095,17.0372845 C107.603017,17.0372845 107.57069,20.2907328 107.576293,21.3831897 L102.358621,21.3831897 Z" id="Fill-20" fill="#4D4E4C"></path>
                <path d="M113.738578,20.1088362 C113.662069,19.0556034 113.13319,18.4709052 112.129741,18.4709052 C111.058836,18.4709052 110.456034,19.1681034 110.315086,20.1088362 L113.738578,20.1088362 Z M110.315086,21.3831897 C110.607112,24.1415948 114.086638,23.5267241 115.142026,22.5614224 L115.142026,24.1043103 C114.223707,24.6400862 113.441595,24.855819 112.381681,24.855819 C109.959267,24.855819 108.526724,23.4243534 108.526724,21.0017241 C108.526724,18.6131466 109.986422,17.0372845 112.207974,17.0372845 C115.55819,17.0372845 115.529741,20.2907328 115.533836,21.3831897 L110.315086,21.3831897 Z" id="Fill-21" fill="#4D4E4C"></path>
                <path d="M55.356681,18.6172414 C54.9364224,18.5359914 51.9948276,17.9295259 51.9948276,20.9280172 C51.9948276,23.8907328 54.9864224,23.3290948 55.356681,23.1881466 L55.356681,18.6172414 Z M57.2047414,17.2168103 L57.2047414,24.5170259 C55.5810345,24.855819 50.1079741,25.9023707 50.1079741,20.9280172 C50.1079741,18.4782328 51.6834052,17.0262931 54.1428879,17.0262931 C55.4732759,17.0262931 56.2616379,17.2168103 57.2047414,17.2168103 Z" id="Fill-22" fill="#4D4E4C"></path>
                <path d="M85.2329741,18.6228448 C84.8140086,18.5424569 81.8728448,17.9390086 81.8728448,20.9355603 C81.8728448,23.8993534 84.8642241,23.3366379 85.2329741,23.1928879 L85.2329741,18.6228448 Z M87.0836207,17.2232759 L87.0836207,24.5230603 C85.4586207,24.8655172 79.9866379,25.9112069 79.9866379,20.9355603 C79.9866379,18.4851293 81.5625,17.0338362 84.0206897,17.0338362 C85.3510776,17.0338362 86.1398707,17.2232759 87.0836207,17.2232759 Z" id="Fill-23" fill="#4D4E4C"></path>
                <path d="M67.1840517,17.2168103 L68.381681,17.2198276 C68.381681,15.4644397 68.6609914,14.5297414 69.4101293,13.8463362 C70.000431,13.3153017 70.8219828,13.0140086 71.7547414,13.0140086 C72.0364224,13.0140086 72.2099138,13.0372845 72.5366379,13.0954741 L72.5366379,14.5737069 C72.2862069,14.5297414 72.1467672,14.5137931 71.9577586,14.5137931 C71.3717672,14.5137931 70.9017241,14.7200431 70.6211207,15.0849138 C70.325,15.4601293 70.2325431,15.981681 70.2325431,17.2198276 L72.0974138,17.2198276 L72.0974138,18.5991379 L70.2346983,18.5991379 L70.2346983,24.7575431 L68.381681,24.7575431 L68.381681,18.5991379 L67.1840517,18.5991379 L67.1840517,17.2168103" id="Fill-24" fill="#4D4E4C"></path>
                <path d="M132.155172,21.7609914 C132.23319,21.8165948 132.309267,21.9448276 132.261422,22.0971983 C132.213362,22.2476293 132.079741,22.2915948 131.984267,22.2915948 L130.174569,22.2915948 C129.957974,22.2963362 129.811207,22.2612069 129.700862,22.1810345 C129.58319,22.0956897 129.506466,21.9653017 129.436422,21.7306034 C129.436422,21.7306034 128.925,20.1588362 128.890733,20.0487069 C128.851078,19.9234914 128.899353,19.7931034 128.986638,19.7262931 C129.090086,19.6452586 129.234698,19.637931 129.339009,19.712931 C129.436422,19.7831897 132.155172,21.7609914 132.155172,21.7609914" id="Fill-25" fill="#327585"></path>
                <path d="M130.733836,15.8592672 C130.655819,15.8857759 130.617241,15.9394397 130.618103,16.0071121 C130.62069,16.074569 130.651078,16.1155172 130.682974,16.1390086 C130.715948,16.1618534 131.563362,16.780819 131.654957,16.844181 C131.745043,16.9081897 131.839009,16.90625 131.904741,16.8846983 C131.971552,16.8635776 134.032112,16.1926724 134.032112,16.1926724 L134.034483,20.075 C134.034483,20.075 129.918103,17.08125 129.608836,16.8586207 C129.297845,16.6359914 128.925,16.4545259 128.351078,16.6383621 C127.742241,16.8338362 126.165733,17.3439655 125.911207,17.4280172 C125.657112,17.5116379 125.542672,17.7487069 125.621336,17.9907328 C125.685991,18.1913793 127.2625,23.0310345 127.396121,23.4506466 C127.696767,24.3859914 128.21056,24.7584052 129.183836,24.7581897 C129.429095,24.7575431 135.208621,24.7549569 135.208621,24.7549569 C135.296121,24.7549569 135.367241,24.6864224 135.378664,24.6056034 L135.378664,23.575 C135.377586,23.4821121 135.298707,23.4109914 135.208621,23.4109914 L129.602371,23.4150862 C128.881681,23.4077586 128.746767,23.231681 128.585345,22.7424569 C128.480388,22.4073276 127.198922,18.4640086 127.194181,18.4512931 C127.189871,18.4385776 127.194181,18.4170259 127.215086,18.4086207 C127.234914,18.4006466 127.975216,18.1607759 128.366164,18.0334052 C128.757974,17.9060345 128.990733,18.0788793 129.228879,18.2528017 C129.46875,18.4269397 134.63319,22.1775862 134.831681,22.3193966 C135.028879,22.4625 135.378664,22.3543103 135.377586,22.025431 C135.377371,21.6846983 135.375216,14.3512931 135.375216,14.3512931 C135.375216,14.3512931 130.81681,15.8318966 130.733836,15.8592672" id="Fill-26" fill="#327585"></path>
                <g id="Group-30" transform="translate(129.741379, 0.000000)" fill="#327585">
                    <path d="M4.44224138,4.74116379 C4.34655172,4.74116379 4.20948276,4.68340517 4.15926724,4.53168103 C4.10948276,4.38146552 4.19159483,4.2674569 4.26875,4.21185345 L5.7325431,3.14698276 C5.90538793,3.01702586 6.04547414,2.95883621 6.18232759,2.95883621 C6.32650862,2.95883621 6.46508621,3.01896552 6.66056034,3.1674569 C6.66056034,3.1674569 7.99784483,4.1387931 8.08987069,4.20818966 C8.19547414,4.28534483 8.23340517,4.41939655 8.20280172,4.52456897 C8.16551724,4.65021552 8.05344828,4.74267241 7.92413793,4.74288793 C7.80474138,4.74288793 4.44224138,4.74116379 4.44224138,4.74116379" id="Fill-27"></path>
                    <path d="M9.06163793,8.68125 C9.10991379,8.61293103 9.10926724,8.54676724 9.06831897,8.49310345 C9.02607759,8.44008621 8.97715517,8.42413793 8.93857759,8.42413793 C8.89827586,8.42413793 7.84784483,8.42262931 7.73706897,8.42413793 C7.62737069,8.42650862 7.55193966,8.4825431 7.51163793,8.5387931 C7.47068966,8.59525862 6.19784483,10.3497845 6.19784483,10.3497845 L3.91314655,7.20991379 C3.91314655,7.20991379 9.00323276,7.21228448 9.38491379,7.20991379 C9.7674569,7.20775862 10.1752155,7.13577586 10.5310345,6.65021552 C10.9099138,6.13340517 11.8846983,4.79375 12.0415948,4.57693966 C12.1974138,4.35948276 12.1508621,4.10043103 11.9448276,3.95064655 C11.7739224,3.82672414 7.65538793,0.837284483 7.3,0.576724138 C6.50646552,-0.00280172414 5.87219828,-0.00237068966 5.08556034,0.570043103 C4.88685345,0.714224138 0.212284483,4.11336207 0.212284483,4.11336207 C0.14137931,4.16508621 0.123491379,4.2625 0.163146552,4.33491379 L0.768534483,5.16831897 C0.823491379,5.24331897 0.928663793,5.25387931 1.00237069,5.20086207 L5.5362069,1.90323276 C6.12306034,1.48448276 6.33556034,1.54762931 6.75387931,1.84913793 C7.03663793,2.05818966 10.3898707,4.49568966 10.4008621,4.50280172 C10.4122845,4.51077586 10.4211207,4.53081897 10.4094828,4.54913793 C10.3971983,4.56767241 9.94116379,5.19568966 9.69892241,5.52909483 C9.45689655,5.86336207 9.16724138,5.85948276 8.87133621,5.85948276 C8.57543103,5.85948276 2.19159483,5.86012931 1.94892241,5.86206897 C1.70517241,5.86336207 1.48663793,6.15560345 1.6799569,6.42219828 C1.8799569,6.69676724 6.19288793,12.6282328 6.19288793,12.6282328 C6.19288793,12.6282328 9.01077586,8.75150862 9.06163793,8.68125" id="Fill-29"></path>
                </g>
                <path d="M126.986207,12.5146552 C126.956034,12.6064655 126.859483,12.718319 126.7,12.7196121 C126.54181,12.7204741 126.45819,12.6064655 126.428879,12.5161638 L125.868534,10.7948276 C125.798707,10.5898707 125.785991,10.4398707 125.827802,10.3094828 C125.87306,10.1726293 125.973707,10.0592672 126.175,9.91875 C126.175,9.91875 127.512716,8.94741379 127.606897,8.88060345 C127.712716,8.80431034 127.851078,8.80969828 127.942672,8.87155172 C128.05,8.94590517 128.103017,9.08125 128.064009,9.20387931 C128.027586,9.31767241 126.986207,12.5146552 126.986207,12.5146552" id="Fill-31" fill="#327585"></path>
                <path d="M132.160129,9.33943966 C132.111422,9.27262931 132.047414,9.25215517 131.983621,9.27521552 C131.920259,9.29762931 131.891164,9.33943966 131.878448,9.37737069 C131.865948,9.41487069 131.540086,10.4131466 131.507759,10.51875 C131.474353,10.6247845 131.505603,10.7133621 131.546552,10.7693966 C131.587284,10.8260776 132.862284,12.5786638 132.862284,12.5786638 L129.171552,13.7806034 C129.171552,13.7806034 130.745474,8.94094828 130.861638,8.57737069 C130.977371,8.2137931 131.034267,7.80237069 130.682328,7.31422414 C130.309052,6.79482759 129.335991,5.45301724 129.177371,5.23728448 C129.020043,5.02176724 128.759267,4.98512931 128.553233,5.13491379 C128.381897,5.25905172 124.266164,8.25344828 123.908621,8.51034483 C123.112284,9.08512931 122.915948,9.68900862 123.218103,10.6148707 C123.293966,10.8482759 125.082112,16.3439655 125.082112,16.3439655 C125.109483,16.4271552 125.196767,16.4737069 125.277155,16.4592672 L126.257543,16.1411638 C126.345905,16.1116379 126.3875,16.0146552 126.36056,15.9280172 L124.625431,10.5976293 C124.408405,9.90948276 124.533836,9.72758621 124.950647,9.42262931 C125.236638,9.21853448 128.590517,6.78168103 128.601724,6.77435345 C128.611853,6.76573276 128.633836,6.76336207 128.647629,6.78017241 C128.661422,6.79741379 129.117457,7.4262931 129.359698,7.75905172 C129.603017,8.0924569 129.510345,8.36637931 129.418534,8.64784483 C129.326724,8.92952586 127.355603,15.0010776 127.282328,15.2329741 C127.208405,15.4644397 127.417888,15.7637931 127.730819,15.6618534 C128.054741,15.5556034 135.028448,13.2862069 135.028448,13.2862069 C135.028448,13.2862069 132.212284,9.40948276 132.160129,9.33943966" id="Fill-32" fill="#327585"></path>
                <path d="M142.546983,19.7028017 C142.625,19.6456897 142.769181,19.6135776 142.899138,19.7064655 C143.027371,19.7978448 143.028448,19.9385776 142.999138,20.0290948 L142.440302,21.7512931 C142.377155,21.9581897 142.298922,22.0868534 142.188147,22.1676724 C142.070474,22.2525862 141.922629,22.2849138 141.677802,22.2793103 C141.677802,22.2793103 140.024569,22.2793103 139.909052,22.2786638 C139.777586,22.2784483 139.668966,22.1915948 139.632328,22.0872845 C139.587931,21.9642241 139.624784,21.8237069 139.730172,21.7480603 C139.824784,21.6775862 142.546983,19.7028017 142.546983,19.7028017" id="Fill-33" fill="#327585"></path>
                <path d="M136.494828,19.2299569 C136.495259,19.3142241 136.534698,19.3672414 136.599569,19.3862069 C136.664009,19.4051724 136.712716,19.3885776 136.743966,19.3653017 C136.777371,19.3420259 137.627802,18.7262931 137.716379,18.6603448 C137.80431,18.593319 137.831681,18.5034483 137.831681,18.4334052 C137.831681,18.3644397 137.830388,16.1976293 137.830388,16.1976293 L141.523491,17.3954741 C141.523491,17.3954741 137.404741,20.3840517 137.097198,20.6105603 C136.789871,20.8364224 136.50194,21.1351293 136.499353,21.7366379 C136.496767,22.3775862 136.494828,24.0344828 136.495905,24.3017241 C136.498491,24.5696121 136.687069,24.7521552 136.942026,24.7521552 C137.152371,24.7521552 142.242241,24.749569 142.682759,24.7512931 C143.665517,24.7543103 144.178017,24.381681 144.479957,23.4553879 C144.553879,23.2215517 146.338147,17.7247845 146.338147,17.7247845 C146.364224,17.6413793 146.322414,17.5519397 146.248491,17.5165948 L145.268103,17.1987069 C145.17931,17.1693966 145.087284,17.2232759 145.060345,17.3099138 L143.330388,22.6411638 C143.101509,23.3252155 142.892241,23.3989224 142.377155,23.4012931 C142.025862,23.3984914 137.880172,23.3971983 137.866164,23.3971983 C137.853233,23.3984914 137.833405,23.3872845 137.831681,23.3657328 C137.830388,23.3428879 137.830603,22.5661638 137.830388,22.1553879 C137.830388,21.7424569 138.067241,21.575 138.306466,21.4012931 C138.54569,21.2271552 143.709698,17.474569 143.906034,17.3306034 C144.101724,17.1864224 144.107328,16.8206897 143.794397,16.7196121 C143.469397,16.6146552 136.494612,14.3512931 136.494612,14.3512931 C136.494612,14.3512931 136.49375,19.1435345 136.494828,19.2299569" id="Fill-34" fill="#327585"></path>
                <g id="Group-38" transform="translate(136.637931, 4.741379)" fill="#327585">
                    <path d="M7.16293103,4.44310345 C7.13362069,4.35107759 7.14676724,4.20431034 7.27478448,4.10926724 C7.40172414,4.01508621 7.53685345,4.0575431 7.61293103,4.11400862 L9.07758621,5.17737069 C9.25431034,5.30237069 9.35387931,5.41616379 9.39612069,5.54633621 C9.44008621,5.68340517 9.42543103,5.83383621 9.34439655,6.06637931 C9.34439655,6.06637931 8.83405172,7.63814655 8.79612069,7.74719828 C8.75625,7.87155172 8.64008621,7.94935345 8.53103448,7.95215517 C8.4,7.95603448 8.27715517,7.87693966 8.23706897,7.75431034 C8.20021552,7.64137931 7.16293103,4.44310345 7.16293103,4.44310345" id="Fill-35"></path>
                    <path d="M4.84331897,10.0523707 C4.92284483,10.0778017 4.98512931,10.0573276 5.02435345,10.0015086 C5.06228448,9.94547414 5.06142241,9.89418103 5.04935345,9.85668103 C5.03685345,9.81918103 4.71357759,8.81982759 4.67823276,8.71487069 C4.6424569,8.60991379 4.56551724,8.55625 4.49956897,8.53512931 C4.43297414,8.5137931 2.37133621,7.84461207 2.37133621,7.84461207 L4.65150862,4.70323276 C4.65150862,4.70323276 6.22155172,9.54375 6.34137931,9.90646552 C6.46185345,10.269181 6.65646552,10.6351293 7.22887931,10.8232759 C7.83642241,11.0232759 9.41142241,11.537069 9.66681034,11.618319 C9.92241379,11.7 10.1543103,11.5760776 10.2329741,11.3342672 C10.2971983,11.1331897 11.8676724,6.29181034 12.0075431,5.8737069 C12.3135776,4.94051724 12.1165948,4.33706897 11.3288793,3.76443966 C11.1303879,3.62112069 6.45280172,0.225215517 6.45280172,0.225215517 C6.38168103,0.174784483 6.28383621,0.187931034 6.22737069,0.246982759 L5.62241379,1.08081897 C5.56702586,1.15560345 5.59008621,1.25991379 5.66293103,1.31293103 L10.1997845,4.60581897 C10.7795259,5.03577586 10.7849138,5.25646552 10.6278017,5.74806034 C10.5168103,6.08081897 9.23512931,10.0239224 9.23017241,10.0359914 C9.22693966,10.0491379 9.20969828,10.0642241 9.18922414,10.0586207 C9.16788793,10.0532328 8.42931034,9.8125 8.03706897,9.68577586 C7.64547414,9.55883621 7.55926724,9.28189655 7.46788793,9.00107759 C7.37650862,8.71961207 5.40237069,2.64849138 5.32693966,2.41767241 C5.24956897,2.18685345 4.90366379,2.06788793 4.7112069,2.33491379 C4.51142241,2.60969828 0.202801724,8.54482759 0.202801724,8.54482759 C0.202801724,8.54482759 4.75926724,10.0262931 4.84331897,10.0523707" id="Fill-37"></path>
                </g>
                <path d="M146.506681,2.16594828 L146.696983,2.16594828 C147.005172,2.16594828 147.203233,2.03275862 147.203233,1.73987069 C147.203233,1.48103448 147.024138,1.32909483 146.682112,1.32909483 C146.636422,1.32909483 146.548707,1.33275862 146.506681,1.33663793 L146.506681,2.16594828 Z M146.506681,3.28814655 L146.11875,3.28814655 L146.11875,1.03232759 C146.255819,1.00948276 146.499353,0.990517241 146.682112,0.990517241 C147.275431,0.990517241 147.598491,1.25280172 147.598491,1.72844828 C147.598491,2.05948276 147.4125,2.29913793 147.149569,2.39806034 L147.831034,3.28814655 L147.363147,3.28814655 L146.761853,2.48556034 L146.506681,2.48556034 L146.506681,3.28814655 Z" id="Fill-39" fill="#4D4E4C"></path>
                <path d="M146.76681,0.489439655 C145.830819,0.489439655 145.069828,1.25064655 145.069828,2.18642241 C145.069828,3.12198276 145.830819,3.88318966 146.76681,3.88318966 C147.702155,3.88318966 148.463147,3.12198276 148.463147,2.18642241 C148.463147,1.25064655 147.702155,0.489439655 146.76681,0.489439655 Z M146.76681,4.22112069 C145.644612,4.22112069 144.731466,3.30840517 144.731466,2.18642241 C144.731466,1.06422414 145.644612,0.151508621 146.76681,0.151508621 C147.888793,0.151508621 148.801509,1.06422414 148.801509,2.18642241 C148.801509,3.30840517 147.888793,4.22112069 146.76681,4.22112069 Z" id="Fill-40" fill="#4D4E4C"></path>
            </g>
        </g>
    </g>
</svg>