<?xml version="1.0" encoding="UTF-8" standalone="no"?>
<svg width="131px" height="39px" viewBox="0 0 131 39" version="1.1" xmlns="http://www.w3.org/2000/svg" xmlns:xlink="http://www.w3.org/1999/xlink">
    <!-- Generator: sketchtool 49.1 (51147) - http://www.bohemiancoding.com/sketch -->
    <title>BA2AEE55-BCA5-4AF0-BA2F-1AB4324EC7EB</title>
    <desc>Created with sketchtool.</desc>
    <defs>
        <polygon id="path-1" points="0.0997584729 0.142952863 4.35954811 0.142952863 4.35954811 10.2689521 0.0997584729 10.2689521"></polygon>
        <polygon id="path-3" points="0.015426568 0.202088041 71.2316634 0.202088041 71.2316634 13.8332606 0.015426568 13.8332606"></polygon>
        <polygon id="path-5" points="0.00719906506 0.256217203 11.6174912 0.256217203 11.6174912 11.3881047 0.00719906506 11.3881047"></polygon>
    </defs>
    <g id="Desktop" stroke="none" stroke-width="1" fill="none" fill-rule="evenodd">
        <g id="Toyota-Homepage-arabic" transform="translate(-1173.000000, -4072.000000)">
            <g id="Footer" transform="translate(0.000000, 4004.000000)">
                <g id="alj_motors_log_ara_pos_reg" transform="translate(1173.000000, 68.000000)">
                    <path d="M53.1468407,31.2161745 C52.7735177,31.2161745 52.4935255,30.9456954 52.4935255,30.583171 C52.4935255,30.2327308 52.7799455,29.9581379 53.1468407,29.9581379 C53.5111648,29.9581379 53.7973276,30.2327308 53.7973276,30.583171 C53.7973276,30.9456954 53.5175925,31.2161745 53.1468407,31.2161745" id="Fill-1" fill="#4D4E4C"></path>
                    <path d="M57.4845345,36.7131749 L53.5965251,36.7131749 C52.4773276,36.7131749 51.8610362,36.5342267 51.3177639,36.0498325 C50.7827191,35.5687807 50.5932295,34.7629996 50.5932295,34.2186989 L50.5932295,32.1571952 L51.6126685,32.1571952 L51.6126685,34.1032567 C51.6126685,34.6688975 51.7666771,35.0766732 52.0723802,35.3183561 C52.3747409,35.567238 52.856307,35.696307 53.4628282,35.696307 L56.4560966,35.696307 L56.4560966,31.2549981 L57.4845345,31.2549981 L57.4845345,36.7131749" id="Fill-2" fill="#4D4E4C"></path>
                    <path d="M54.9975146,31.2161745 C54.6275341,31.2161745 54.3447137,30.9456954 54.3447137,30.583171 C54.3447137,30.2327308 54.6321621,29.9581379 54.9975146,29.9581379 C55.3690378,29.9581379 55.6611141,30.2327308 55.6611141,30.583171 C55.6611141,30.9456954 55.37418,31.2161745 54.9975146,31.2161745" id="Fill-3" fill="#4D4E4C"></path>
                    <g id="Group-7" transform="translate(59.135177, 28.539151)">
                        <mask id="mask-2" fill="white">
                            <use xlink:href="#path-1"></use>
                        </mask>
                        <g id="Clip-5"></g>
                        <polygon id="Fill-4" fill="#4D4E4C" mask="url(#mask-2)" points="0.0997584729 8.17402415 1.1163693 8.17402415 1.1163693 0.142952863 0.0997584729 0.142952863"></polygon>
                        <path d="M2.76521231,10.2843787 C2.54846903,10.2843787 2.33455395,10.2553253 2.1103545,10.1956759 L1.98977016,10.1643085 L2.25562135,9.1829217 L2.37543436,9.21454616 C2.55104012,9.26082587 2.61480327,9.26776782 2.73615894,9.26776782 C3.18378652,9.26776782 3.34036619,9.10938839 3.34036619,8.21310479 L3.34036619,2.71584729 L4.35954811,2.71584729 L4.35954811,8.21310479 C4.35954811,9.10373198 4.19422672,10.2843787 2.76521231,10.2843787" id="Fill-6" fill="#4D4E4C" mask="url(#mask-2)"></path>
                    </g>
                    <path d="M80.3526217,38.719143 C79.9741566,38.719143 79.6987924,38.4568913 79.6987924,38.096681 C79.6987924,37.739813 79.986755,37.4623919 80.3526217,37.4623919 C80.7179743,37.4623919 81.0043942,37.739813 81.0043942,38.096681 C81.0043942,38.4568913 80.7305727,38.719143 80.3526217,38.719143" id="Fill-8" fill="#4D4E4C"></path>
                    <path d="M82.2048383,38.719143 C81.8253448,38.719143 81.5520374,38.4568913 81.5520374,38.096681 C81.5520374,37.739813 81.8379431,37.4623919 82.2048383,37.4623919 C82.5820179,37.4623919 82.8653526,37.7344137 82.8653526,38.096681 C82.8653526,38.4568913 82.5884457,38.719143 82.2048383,38.719143" id="Fill-9" fill="#4D4E4C"></path>
                    <path d="M91.5659369,36.8093339 C90.7462719,36.8093339 90.077016,36.4977172 89.6617842,35.9230775 C89.255037,36.4272692 88.64903,36.7131749 87.9676899,36.7131749 L65.2687807,36.7131749 L65.2687807,28.6826178 L66.2843631,28.6826178 L66.2843631,35.696307 L80.8419011,35.696307 L80.8419011,31.2549981 L81.8597974,31.2549981 L81.8597974,35.696307 L85.5881418,35.696307 L85.5881418,31.7345072 L86.6068095,31.7345072 L86.6068095,35.696307 L87.9676899,35.696307 C88.3194157,35.696307 89.1380522,35.5811219 89.1380522,34.5174601 L89.1380522,31.7345072 L90.1554344,31.7345072 L90.1554344,34.5174601 C90.1824309,35.2893027 90.7616985,35.7924659 91.5659369,35.7924659 C92.3956291,35.7924659 92.8705103,35.306529 92.8705103,34.458582 L92.8705103,30.7083833 L93.8876354,30.7083833 L93.8876354,34.3336268 C93.8876354,34.6269887 93.8660382,34.8714998 93.8197585,35.0815582 C94.0925516,35.4859914 94.5579198,35.696307 95.3559875,35.696307 L96.4841839,35.696307 L96.4841839,28.6826178 L97.5000234,28.6826178 L97.5000234,35.696307 L99.9446202,35.696307 L99.9446202,28.6826178 L100.963031,28.6826178 L100.963031,36.7131749 L95.0346007,36.6964628 C94.3146942,36.6396416 93.8174445,36.3982158 93.4891157,35.9469887 C93.1065368,36.518543 92.4606778,36.8093339 91.5659369,36.8093339" id="Fill-10" fill="#4D4E4C"></path>
                    <path d="M74.9780055,12.8004519 L73.7482509,12.8004519 L73.7482509,24.0675029 L75.5320764,24.0675029 L75.5320764,13.3475808 C75.5320764,13.05679 75.3022205,12.8004519 74.9780055,12.8004519" id="Fill-11" fill="#4D4E4C"></path>
                    <path d="M44.6308609,14.202984 L42.8277522,14.202984 L42.8277522,15.5337826 L44.6295754,15.5337826 C44.6295754,15.5337826 44.6308609,14.4508376 44.6308609,14.202984" id="Fill-12" fill="#4D4E4C"></path>
                    <polygon id="Fill-13" fill="#4D4E4C" points="89.9492326 26.4318816 91.7520841 26.4318816 91.7520841 25.1005688 89.9492326 25.1005688"></polygon>
                    <path d="M25.5710791,26.4316245 L27.3721309,26.4316245 C27.3721309,26.4316245 27.3736735,25.3484223 27.3736735,25.1005688 L25.5710791,25.1005688 L25.5710791,26.4316245" id="Fill-14" fill="#4D4E4C"></path>
                    <path d="M8.69389949,26.4316245 L10.4946942,26.4316245 C10.4946942,26.4316245 10.496494,25.3484223 10.496494,25.1005688 L8.69389949,25.1005688 L8.69389949,26.4316245" id="Fill-15" fill="#4D4E4C"></path>
                    <path d="M11.1606077,26.4316245 L12.9619166,26.4316245 C12.9619166,26.4316245 12.9632022,25.3484223 12.9632022,25.1005688 L11.1606077,25.1005688 L11.1606077,26.4316245" id="Fill-16" fill="#4D4E4C"></path>
                    <path d="M48.4052279,26.4316245 L50.2065368,26.4316245 C50.2065368,26.4316245 50.207051,25.3484223 50.207051,25.1005688 L48.4052279,25.1005688 L48.4052279,26.4316245" id="Fill-17" fill="#4D4E4C"></path>
                    <path d="M50.8724503,26.4316245 L52.6727308,26.4316245 C52.6727308,26.4316245 52.6747877,25.3484223 52.6747877,25.1005688 L50.8724503,25.1005688 L50.8724503,26.4316245" id="Fill-18" fill="#4D4E4C"></path>
                    <path d="M98.9498637,22.6099494 L98.950635,22.6060927 C97.4624854,22.6060927 96.5446046,21.7797429 96.5446046,20.3509856 C96.5446046,18.9211998 97.4766264,18.0339151 98.9668329,18.0339151 C99.612949,18.0339151 100.079088,18.1694118 100.651414,18.5455629 L100.651414,17.0108765 C99.9585041,16.7103155 99.432201,16.5899883 98.7094663,16.5899883 C96.3332606,16.5899883 94.708843,18.1838099 94.708843,20.5008804 C94.708843,21.331344 94.9106739,22.0412232 95.2778263,22.6099494 L93.1782704,22.6099494 C92.0341332,22.6099494 91.660039,22.235598 91.660039,21.1071445 L91.660039,16.7931048 L89.8741566,16.7931048 L89.8741566,21.1071445 C89.8741566,22.235598 89.5000623,22.6099494 88.355411,22.6099494 L85.9889755,22.6099494 L85.9889755,20.5008804 C85.9889755,18.1838099 84.3640436,16.5899883 81.9875808,16.5899883 C81.2653603,16.5899883 80.7393144,16.7103155 80.0469186,17.0108765 L80.0469186,18.5455629 C80.61873,18.1694118 81.0853837,18.0339151 81.7314998,18.0339151 C83.2211921,18.0339151 84.1542423,18.9211998 84.1542423,20.3509856 L84.1542423,22.6099494 L79.4553097,22.6099494 L79.4553097,24.1554344 L88.5045345,24.1554344 C89.5198598,24.1554344 90.2572497,23.9816284 90.7673549,23.635559 C91.2764316,23.9816284 92.0138216,24.1554344 93.0288898,24.1554344 L101.242252,24.1554344 L101.242252,22.6099494 L98.9498637,22.6099494" id="Fill-19" fill="#4D4E4C"></path>
                    <g id="Group-23" transform="translate(0.000000, 12.598364)">
                        <mask id="mask-4" fill="white">
                            <use xlink:href="#path-3"></use>
                        </mask>
                        <g id="Clip-21"></g>
                        <path d="M70.6768212,0.202088041 L69.4475808,0.202088041 L69.4475808,10.0115855 L66.7098792,10.0115855 L66.7098792,0.749216985 C66.7098792,0.458426178 66.479252,0.202088041 66.155037,0.202088041 L64.9252824,0.202088041 L64.9252824,10.0115855 L62.2230619,10.0115855 L62.2230619,7.90251656 C62.2230619,5.58570316 60.5981301,3.99162446 58.2216673,3.99162446 C57.4997039,3.99162446 56.9731437,4.11195169 56.2812622,4.41251266 L56.2812622,0.749216985 C56.2812622,0.458426178 56.050635,0.202088041 55.7261628,0.202088041 L54.4966654,0.202088041 L54.4966654,10.0115855 L52.8725049,10.0115855 C51.7286249,10.0115855 51.3545306,9.63723413 51.3545306,8.50878068 L51.3545306,4.19474094 L49.5678769,4.19474094 L49.5678769,8.50878068 C49.5678769,9.63723413 49.1937826,10.0115855 48.0499026,10.0115855 L46.5041605,10.0115855 L46.5041605,4.19165563 C45.5937359,4.19165563 44.8332061,4.00833658 43.5507441,4.00833658 C41.1768524,4.00833658 39.6578496,5.40984028 39.6578496,7.7734476 C39.6578496,8.73735099 39.8733074,9.46342813 40.2258044,10.0115855 L37.8465134,10.0115855 L37.8475419,10.007986 C36.358621,10.007986 35.4409973,9.18137904 35.4409973,7.75262174 L35.4409973,4.19474094 L33.6057499,4.19474094 L33.6057499,7.90251656 C33.6057499,10.1743358 35.0946708,11.5570705 37.4567355,11.5570705 L48.198769,11.5570705 C49.2138372,11.5570705 49.9517413,11.3832645 50.4610752,11.0371952 C50.9547254,11.372723 51.6658901,11.5447293 52.6341644,11.5547565 L71.2316634,11.5570705 L71.2316634,0.749216985 C71.2316634,0.458426178 71.000522,0.202088041 70.6768212,0.202088041 M44.7195637,5.54328009 L44.7195637,9.9542501 C44.3621815,10.0907752 41.4768991,10.6335333 41.4768991,7.7734476 C41.4768991,4.88173744 44.3146163,5.46486171 44.7195637,5.54328009 M57.9658434,5.43555123 C59.4550214,5.43555123 60.3878146,6.3230931 60.3878146,7.75262174 L60.3878146,10.0115855 L56.2812622,10.0115855 L56.2812622,5.94719907 C56.8525594,5.57104792 57.3194702,5.43555123 57.9658434,5.43555123" id="Fill-20" fill="#4D4E4C" mask="url(#mask-4)"></path>
                        <path d="M25.9436307,3.99162446 C25.2216673,3.99162446 24.69485,4.11169459 24.0027113,4.41276977 L24.0027113,5.94719907 C24.5745228,5.57130503 25.0411765,5.43555123 25.6878068,5.43555123 C27.1764706,5.43555123 28.1095208,6.322836 28.1095208,7.75287885 L28.1095208,10.0113284 L23.5296299,10.0113284 C22.4595403,10.0113284 22.0633346,9.68402805 22.0165407,8.71729646 L22.0165407,4.19165563 C21.1066303,4.19165563 20.3461005,4.00833658 19.0633814,4.00833658 C16.7126295,4.00833658 15.2023685,5.38438644 15.1733152,7.70557071 L15.1689443,7.70557071 L15.1689443,8.50878068 C15.1689443,9.63697702 14.7945929,10.0113284 13.65097,10.0113284 L13.1814881,10.0113284 C12.037351,10.0113284 11.6629996,9.63697702 11.6629996,8.50878068 L11.6629996,4.19474094 C11.4691391,4.19474094 11.1135567,4.19551227 10.7700584,4.19551227 C10.4270744,4.19551227 10.0707207,4.19474094 9.87711726,4.19474094 L9.87711726,8.50878068 C9.87711726,9.63697702 9.50276587,10.0113284 8.35862875,10.0113284 L7.79735878,10.0113284 C6.65347877,10.0113284 6.2793845,9.63697702 6.2793845,8.50878068 L6.2768134,0.749216985 C6.2768134,0.458426178 6.04644332,0.20234515 5.72222828,0.20234515 L4.49298792,0.20234515 L4.48784573,12.1831321 C4.05641605,12.2533229 3.7129178,12.2877756 3.30334242,12.2877756 C2.15946241,12.2877756 1.78511102,11.9136813 1.78511102,10.7847137 L1.78511102,6.47118816 C1.3336268,6.47118816 0,6.47170238 0,6.47170238 L0,10.8608181 C0,12.0756603 0.177662641,12.6752396 0.68905337,13.1568056 C1.197873,13.6064901 1.99516946,13.8332606 3.15421893,13.8332606 C4.11272302,13.8332606 4.95321387,13.744815 6.2768134,13.488991 L6.2768134,11.4120608 C6.60848461,11.4933074 6.99234905,11.5398442 7.43072069,11.551157 L7.43072069,11.5570705 L8.50826646,11.5570705 C9.52282041,11.5570705 10.2609817,11.3830074 10.7700584,11.0371952 C11.2431399,11.3588391 11.9180522,11.5290456 12.8248773,11.5516712 L13.8911102,11.5547565 C14.9995092,11.5426724 15.7703233,11.3184729 16.2647448,10.8801013 C16.314367,10.8340787 16.3596182,10.7857421 16.4028126,10.73612 C17.904589,11.8946552 20.3967511,11.5516712 21.6614725,11.3074172 C22.1139852,11.4729957 22.6798831,11.5570705 23.3807635,11.5570705 L29.9447682,11.5570705 L29.9447682,7.90251656 C29.9447682,5.58596026 28.3198364,3.99162446 25.9436307,3.99162446 M16.9895364,7.77319049 C16.9895364,4.88199455 19.8277678,5.4646046 20.232201,5.54328009 L20.232201,7.8765485 L20.2262875,7.8765485 L20.2262875,8.58385664 C20.2262875,8.70238411 20.2288586,8.81396961 20.232201,8.92169848 L20.232201,9.9542501 C19.8748189,10.0905181 16.9895364,10.6335333 16.9895364,7.77319049" id="Fill-22" fill="#4D4E4C" mask="url(#mask-4)"></path>
                    </g>
                    <g id="Group-10" transform="translate(105.051903, 0.000000)">
                        <path d="M9.18466097,21.2431554 C9.25999404,21.2971484 9.33378446,21.4221036 9.28724765,21.5699416 C9.24045372,21.7162369 9.11035633,21.758917 9.01805403,21.7586599 L7.25762552,21.758917 C7.04705287,21.763545 6.90487133,21.7293494 6.79739957,21.6511882 C6.68350008,21.5683989 6.60893833,21.4416439 6.54029011,21.2135878 C6.54029011,21.2135878 6.04329751,19.6855863 6.0103875,19.5781145 C5.97156397,19.4567589 6.01810078,19.3294897 6.10320401,19.2649552 C6.20399093,19.1862797 6.34488691,19.1790806 6.44593093,19.2515855 C6.54029011,19.3199766 9.18466097,21.2431554 9.18466097,21.2431554" id="Fill-24" fill="#327585"></path>
                        <path d="M7.80269759,15.5049864 C7.72659318,15.5309544 7.68828387,15.5828905 7.69008364,15.6489677 C7.69214052,15.7145306 7.72170811,15.7541254 7.75281835,15.7770082 C7.78495703,15.7993767 8.60847865,16.40127 8.69743853,16.4627191 C8.78485575,16.5246825 8.87638672,16.5231399 8.94040698,16.5020569 C9.00519856,16.4814881 11.0091097,15.8289443 11.0091097,15.8289443 L11.0111666,19.6033113 C11.0111666,19.6033113 7.00925777,16.6930892 6.70792548,16.476603 C6.40607897,16.2606311 6.04329751,16.0837398 5.48511286,16.2624309 C4.89324687,16.4526919 3.36087445,16.948656 3.11302092,17.0306739 C2.86568162,17.1116634 2.75461033,17.3417764 2.83148606,17.5772887 C2.89422077,17.7721776 4.4271074,22.4777951 4.55720479,22.8858278 C4.84876693,23.7949669 5.34910195,24.1574912 6.29500768,24.156977 C6.53334815,24.1567199 12.1527326,24.1544059 12.1527326,24.1544059 C12.238093,24.1544059 12.3069983,24.0878146 12.3183111,24.008882 L12.3183111,23.0069264 C12.3172827,22.9164238 12.2398928,22.8475185 12.1527326,22.8475185 L6.70175485,22.8508609 C6.00113156,22.8444332 5.86974862,22.6731983 5.71316895,22.1972887 C5.6110965,21.871531 4.36514402,18.0375146 4.36077316,18.0251734 C4.35691652,18.0128321 4.36077316,17.9920062 4.3808277,17.9835216 C4.40062513,17.9758083 5.11924609,17.7426101 5.50002521,17.6189404 C5.88106144,17.4950136 6.10731777,17.6636774 6.3389734,17.8323413 C6.57242879,18.0015193 11.5935196,21.6486171 11.7860945,21.7864277 C11.9781553,21.9247526 12.3183111,21.819852 12.3172827,21.5002649 C12.3167685,21.1688508 12.3144545,14.0392053 12.3144545,14.0392053 C12.3144545,14.0392053 7.88317285,15.478247 7.80269759,15.5049864" id="Fill-25" fill="#327585"></path>
                        <g id="Group-29" transform="translate(6.790715, 0.000000)" fill="#327585">
                            <path d="M4.36597585,4.69507596 C4.27213089,4.69507596 4.13971952,4.63928321 4.08984028,4.49195949 C4.04227503,4.34617842 4.12172185,4.23459291 4.19679782,4.18059992 L5.62015582,3.14547721 C5.78856252,3.01897935 5.9238021,2.96267238 6.05724192,2.96267238 C6.19736658,2.96241527 6.33234905,3.02103623 6.52235294,3.16553175 C6.52235294,3.16553175 7.82306973,4.10989482 7.9117725,4.17700039 C8.01487339,4.25259057 8.05138294,4.38243085 8.02104402,4.48501753 C7.98556291,4.60714453 7.8765485,4.69661862 7.75082197,4.69738995 C7.63435138,4.69738995 4.36597585,4.69507596 4.36597585,4.69507596" id="Fill-26"></path>
                            <path d="M8.85664979,8.52600701 C8.90344371,8.45992988 8.90292949,8.3953954 8.86333463,8.34320218 C8.82194001,8.29152318 8.77463187,8.27661083 8.73683677,8.27661083 C8.69801325,8.27661083 7.67626023,8.27481106 7.56930269,8.27661083 C7.46157382,8.27866771 7.38855473,8.3329178 7.34921698,8.38793923 C7.30987924,8.44296065 6.07189716,10.1486249 6.07189716,10.1486249 L3.8512427,7.09570705 C3.8512427,7.09570705 8.8000857,7.09802104 9.17058044,7.09570705 C9.54287495,7.09365018 9.93959486,7.02345929 10.2856642,6.55140631 C10.6533307,6.04927152 11.6012933,4.74675497 11.7537593,4.5356681 C11.9054538,4.32432411 11.8602026,4.07261395 11.6601714,3.92657577 C11.4935645,3.80650565 7.48934164,0.899626023 7.14378652,0.646630308 C6.37271523,0.0830463576 5.75565251,0.0833034671 4.99049474,0.639945462 C4.79766264,0.780070121 0.252224386,4.08469809 0.252224386,4.08469809 C0.184090378,4.13534866 0.167121153,4.23022205 0.204659135,4.30015582 L0.793439813,5.11082197 C0.847175691,5.18358395 0.94899104,5.19386833 1.02175302,5.14218933 L5.42886638,1.93629139 C5.9996494,1.52903 6.2061083,1.59047916 6.61311258,1.88332684 C6.8879626,2.08670043 10.1481106,4.45647838 10.1586521,4.46367744 C10.1704792,4.47113362 10.1787067,4.49093105 10.1668796,4.5086716 C10.1547955,4.52666926 9.71128165,5.13756136 9.47602649,5.46151928 C9.24077133,5.78650565 8.95923646,5.78264901 8.67178808,5.78290612 C8.38382548,5.78290612 2.17720296,5.78342034 1.94091936,5.7852201 C1.70437865,5.78650565 1.49174912,6.07061161 1.67943903,6.32977795 C1.8740709,6.59691469 6.0677834,12.3636229 6.0677834,12.3636229 C6.0677834,12.3636229 8.80702766,8.59465524 8.85664979,8.52600701" id="Fill-28"></path>
                        </g>
                        <path d="M4.1581709,12.2530658 C4.12911753,12.3425399 4.03527258,12.4510401 3.87972135,12.4523257 C3.726227,12.453097 3.64446619,12.342797 3.61644126,12.2546085 L3.07188341,10.581083 C3.0037494,10.3818231 2.99166525,10.2362992 3.03203144,10.1092871 C3.07599716,9.97584729 3.17395587,9.86580444 3.36935906,9.72953642 C3.36935906,9.72953642 4.67084718,8.78491624 4.76160682,8.71986755 C4.86496483,8.64582002 4.99917597,8.65096221 5.08865006,8.71112583 C5.1930365,8.78337359 5.24394418,8.91501363 5.20589198,9.03431243 C5.17041087,9.14512661 4.1581709,12.2530658 4.1581709,12.2530658" id="Fill-30" fill="#327585"></path>
                        <path d="M9.18877472,9.16620958 C9.14146658,9.10090378 9.07898898,9.08136346 9.01728271,9.10347487 C8.95609065,9.12558629 8.92729439,9.16595247 8.91495314,9.20271913 C8.90286899,9.23948578 8.58611013,10.210074 8.55448567,10.3126607 C8.52183276,10.4157616 8.55242879,10.5018933 8.59228076,10.5566576 C8.63187562,10.6111648 9.87165746,12.3152863 9.87165746,12.3152863 L6.28292353,13.484106 C6.28292353,13.484106 7.81375329,8.77874562 7.92636724,8.42470588 C8.03872408,8.07169459 8.09400261,7.67163226 7.75256124,7.19700818 C7.38849424,6.69204519 6.44335984,5.38747176 6.28832283,5.17741332 C6.13559981,4.96786911 5.88260409,4.932388 5.68205871,5.07842618 C5.51545177,5.19875341 1.51380004,8.11026101 1.16618804,8.36017141 C0.39203144,8.91887028 0.201256216,9.5061083 0.494875226,10.4062485 C0.568408534,10.6330191 2.30698274,15.976268 2.30698274,15.976268 C2.33346502,16.0570004 2.41856825,16.1025088 2.49672953,16.0886249 L3.44957721,15.7793222 C3.5362231,15.7502688 3.57658929,15.6559096 3.55010701,15.5720919 L1.86269759,10.3895364 C1.65238204,9.72053759 1.77399482,9.54338917 2.17919934,9.24694196 C2.45739178,9.04896767 5.71882536,6.67944683 5.72885263,6.67173354 C5.7388799,6.66376315 5.76021999,6.66144916 5.77358968,6.67790417 C5.78747359,6.69461628 6.2304732,7.30576549 6.46598547,7.6294663 C6.70252618,7.95342423 6.61202365,8.22030386 6.52332088,8.49361122 C6.4341039,8.7674328 4.51760994,14.6709233 4.44587639,14.895894 C4.37465707,15.121379 4.57803066,15.4121698 4.88219116,15.3131827 C5.19689315,15.2103389 11.9778982,13.0035684 11.9778982,13.0035684 C11.9778982,13.0035684 9.23916818,9.23434359 9.18877472,9.16620958" id="Fill-31" fill="#327585"></path>
                        <path d="M19.2872632,19.2418153 C19.3631105,19.1865368 19.5032352,19.1551695 19.6299901,19.245672 C19.7549453,19.3343748 19.7559738,19.4714141 19.7269204,19.5590884 L19.183391,21.2336424 C19.1224561,21.4344449 19.0463517,21.5604285 18.9383657,21.6385898 C18.823952,21.7216362 18.680742,21.7522322 18.4421444,21.74709 C18.4421444,21.74709 16.834696,21.74709 16.7225963,21.7465758 C16.5953271,21.7460616 16.4896551,21.6617296 16.4539169,21.5604285 C16.4102083,21.4406155 16.446975,21.3040904 16.5485332,21.2305571 C16.6410926,21.1624231 19.2872632,19.2418153 19.2872632,19.2418153" id="Fill-32" fill="#327585"></path>
                        <path d="M13.4033131,18.7823607 C13.4038273,18.8643787 13.4418795,18.9158005 13.5053855,18.9340553 C13.567606,18.9525672 13.6151713,18.9363693 13.6457673,18.9140008 C13.6781631,18.891118 14.5045129,18.2923101 14.5903875,18.2282898 C14.6762621,18.1632411 14.7030014,18.0758239 14.7030014,18.007947 C14.7030014,17.9408414 14.7017159,15.8340865 14.7017159,15.8340865 L18.2919925,16.9987924 C18.2919925,16.9987924 14.2877697,19.9043864 13.9887513,20.1247293 C13.6899901,20.3443007 13.4099979,20.6345773 13.407684,21.2195014 C13.4051129,21.8424776 13.4033131,23.4535255 13.4040844,23.7134632 C13.4066555,23.973658 13.5902317,24.1513206 13.8380852,24.1513206 C14.0424872,24.1513206 18.9910731,24.1490066 19.4194175,24.1505493 C20.3753505,24.1536346 20.8733715,23.790596 21.1667334,22.8904558 C21.2392383,22.663171 22.9731845,17.3188937 22.9731845,17.3188937 C22.9988955,17.2379042 22.9582722,17.1510012 22.8865386,17.1162914 L21.9331767,16.8069887 C21.8470451,16.7789638 21.7573139,16.8314141 21.7308316,16.9154889 L20.0490786,22.0988157 C19.8264218,22.7639579 19.6233053,22.8359486 19.1224561,22.8377483 C18.7807576,22.8351772 14.7500525,22.8341488 14.7364257,22.8341488 C14.7235702,22.8351772 14.7045441,22.8238644 14.7030014,22.8032957 C14.7017159,22.7811843 14.7022301,22.0260538 14.7017159,21.6265056 C14.7017159,21.2251578 14.9315718,21.0621504 15.1645129,20.8932295 C15.3969399,20.7243085 20.4182878,17.075411 20.609063,16.9355434 C20.7990669,16.7954188 20.8044662,16.4398364 20.5000486,16.3413635 C20.1845753,16.2395481 13.4027989,14.0392053 13.4027989,14.0392053 C13.4027989,14.0392053 13.4020275,18.6980288 13.4033131,18.7823607" id="Fill-33" fill="#327585"></path>
                        <g id="Group-37" transform="translate(13.732670, 4.627970)">
                            <mask id="mask-6" fill="white">
                                <use xlink:href="#path-5"></use>
                            </mask>
                            <g id="Clip-35"></g>
                            <path d="M6.77457733,4.38757304 C6.74526685,4.29809895 6.75837943,4.15488898 6.88282041,4.0631009 C7.00623296,3.97131282 7.13710168,4.01245033 7.21140631,4.06747176 L8.63527854,5.10156603 C8.8080561,5.22266459 8.90421504,5.33347877 8.94483833,5.46023374 C8.98777561,5.59341644 8.97363459,5.73971173 8.8949591,5.96545384 C8.8949591,5.96545384 8.39873783,7.4937125 8.36197117,7.59989871 C8.32289053,7.72099727 8.21027659,7.79658746 8.10383327,7.79915855 C7.97656408,7.80275808 7.85726529,7.72613946 7.81818465,7.60709778 C7.78244644,7.49705493 6.77457733,4.38757304 6.77457733,4.38757304" id="Fill-34" fill="#327585" mask="url(#mask-6)"></path>
                            <path d="M4.51844176,9.84086482 C4.59583171,9.86606155 4.65599533,9.84600701 4.69456175,9.79175691 C4.73158551,9.73724971 4.73081418,9.68737047 4.71898714,9.65086093 C4.706903,9.61435138 4.39245812,8.64299182 4.35800545,8.54040514 C4.32303857,8.4388469 4.24847682,8.38665368 4.18394235,8.36557071 C4.11966498,8.34551617 2.11498247,7.69477211 2.11498247,7.69477211 L4.3320374,4.64031165 C4.3320374,4.64031165 5.85875341,9.34670043 5.97496689,9.69919751 C6.09272302,10.0519517 6.28195559,10.4075341 6.83808337,10.590596 C7.42917803,10.785485 8.96000779,11.2845345 9.20863265,11.3637242 C9.45648617,11.443171 9.68197117,11.3225867 9.75910401,11.0873315 C9.8213245,10.8919283 11.3488118,6.18476821 11.4840514,5.77827815 C11.7815271,4.87119595 11.5902376,4.28447215 10.8245656,3.72783015 C10.6317335,3.58821971 6.08372419,0.286677055 6.08372419,0.286677055 C6.01481885,0.237569147 5.91891702,0.250167511 5.86466693,0.307760031 L5.27614336,1.11816907 C5.22240748,1.19118816 5.24451889,1.2927464 5.31573822,1.34416829 L9.726194,4.54569536 C10.2900351,4.96349825 10.2949201,5.17818465 10.1427113,5.65615115 C10.0347254,5.97985197 8.78851578,9.81361122 8.78337359,9.82543825 C8.78080249,9.83803662 8.76409038,9.85243475 8.74429295,9.84703545 C8.72320997,9.84189326 8.00536034,9.60792365 7.62355279,9.4845111 C7.24303078,9.36161278 7.1594702,9.09216206 7.07025321,8.81885469 C6.98155045,8.54529022 5.06222828,2.64231399 4.98869497,2.41862875 C4.91387612,2.19365797 4.57731983,2.07821582 4.39065836,2.33763927 C4.19602649,2.60503311 0.00719906506,8.37559797 0.00719906506,8.37559797 C0.00719906506,8.37559797 4.43693806,9.81541099 4.51844176,9.84086482" id="Fill-36" fill="#327585" mask="url(#mask-6)"></path>
                        </g>
                        <path d="M23.3236247,2.02010908 L23.4907459,2.02010908 C23.7614822,2.02010908 23.9355453,1.90312427 23.9355453,1.64575769 C23.9355453,1.41847293 23.7781943,1.284776 23.4776333,1.284776 C23.4372671,1.284776 23.3603914,1.28811843 23.3236247,1.29146085 L23.3236247,2.02010908 Z M23.3236247,3.00612388 L22.9829547,3.00612388 L22.9829547,1.024067 C23.1030248,1.00401247 23.3169399,0.987300351 23.4776333,0.987300351 C23.9990513,0.987300351 24.2829002,1.21792754 24.2829002,1.63573042 C24.2829002,1.92652123 24.1191214,2.13709388 23.8884942,2.22399688 L24.4870451,3.00612388 L24.075927,3.00612388 L23.5475671,2.30087261 L23.3236247,2.30087261 L23.3236247,3.00612388 Z" id="Fill-38" fill="#4D4E4C"></path>
                        <path d="M23.5519379,0.547128944 C22.7297019,0.547128944 22.0612173,1.21587067 22.0612173,2.03810674 C22.0612173,2.8600857 22.7297019,3.52882743 23.5519379,3.52882743 C24.3739169,3.52882743 25.0424015,2.8600857 25.0424015,2.03810674 C25.0424015,1.21587067 24.3739169,0.547128944 23.5519379,0.547128944 Z M23.5519379,3.82578886 C22.5661803,3.82578886 21.7637416,3.02360732 21.7637416,2.03810674 C21.7637416,1.05234905 22.5661803,0.250167511 23.5519379,0.250167511 C24.5376956,0.250167511 25.3398772,1.05234905 25.3398772,2.03810674 C25.3398772,3.02360732 24.5376956,3.82578886 23.5519379,3.82578886 Z" id="Fill-39" fill="#4D4E4C"></path>
                    </g>
                </g>
            </g>
        </g>
    </g>
</svg>