<?xml version="1.0" encoding="UTF-8" standalone="no"?>
<svg width="16px" height="16px" viewBox="0 0 16 16" version="1.1" xmlns="http://www.w3.org/2000/svg" xmlns:xlink="http://www.w3.org/1999/xlink">
    <!-- Generator: sketchtool 49.1 (51147) - http://www.bohemiancoding.com/sketch -->
    <title>E46BDAD8-B810-4B76-BDB8-C60B48551B71</title>
    <desc>Created with sketchtool.</desc>
    <defs></defs>
    <g id="Mobile" stroke="none" stroke-width="1" fill="none" fill-rule="evenodd" fill-opacity="0.3">
        <g id="Find-a-center-07" transform="translate(-337.000000, -22.000000)" fill="#8A8A8A">
            <g id="Search">
                <g id="Location" transform="translate(315.000000, 0.000000)">
                    <path d="M22,36.2222222 L27.3333333,36.2222222 L27.3333333,34.4444444 L22,34.4444444 L22,36.2222222 Z M22,25.5555556 L30.8888889,25.5555556 L30.8888889,23.7777778 L22,23.7777778 L22,25.5555556 Z M30.8888889,38 L30.8888889,36.2222222 L38,36.2222222 L38,34.4444444 L30.8888889,34.4444444 L30.8888889,32.6666667 L29.1111111,32.6666667 L29.1111111,38 L30.8888889,38 L30.8888889,38 Z M25.5555556,27.3333333 L25.5555556,29.1111111 L22,29.1111111 L22,30.8888889 L25.5555556,30.8888889 L25.5555556,32.6666667 L27.3333333,32.6666667 L27.3333333,27.3333333 L25.5555556,27.3333333 L25.5555556,27.3333333 Z M29.1111111,30.8888889 L38,30.8888889 L38,29.1111111 L29.1111111,29.1111111 L29.1111111,30.8888889 Z M32.6666667,27.3333333 L34.4444444,27.3333333 L34.4444444,25.5555556 L38,25.5555556 L38,23.7777778 L34.4444444,23.7777778 L34.4444444,22 L32.6666667,22 L32.6666667,27.3333333 L32.6666667,27.3333333 Z" id="tune"></path>
                </g>
            </g>
        </g>
    </g>
</svg>