<?xml version="1.0" encoding="UTF-8" standalone="no"?>
<svg width="62px" height="69px" viewBox="0 0 62 69" version="1.1" xmlns="http://www.w3.org/2000/svg" xmlns:xlink="http://www.w3.org/1999/xlink">
    <!-- Generator: sketchtool 49.1 (51147) - http://www.bohemiancoding.com/sketch -->
    <title>4C1D376E-846E-400F-970B-2F9F01F3A68F</title>
    <desc>Created with sketchtool.</desc>
    <defs>
        <polygon id="path-1" points="1.43107477e-05 0.0915404305 61.1585543 0.0915404305 61.1585543 68.9815871 1.43107477e-05 68.9815871"></polygon>
    </defs>
    <g id="Symbols" stroke="none" stroke-width="1" fill="none" fill-rule="evenodd">
        <g id="NearestCenter" transform="translate(-149.000000, 0.000000)">
            <g id="Nearest-Center">
                <g id="icon" transform="translate(149.000000, 0.000000)">
                    <g id="Group-3" transform="translate(0.000000, 0.051915)">
                        <mask id="mask-2" fill="white">
                            <use xlink:href="#path-1"></use>
                        </mask>
                        <g id="Clip-2"></g>
                        <path d="M30.5650523,1.69231481 C19.8870879,1.69231481 11.1998916,10.4045028 11.1998916,21.1131413 C11.1998916,30.3419025 25.5806189,53.0557751 29.988186,59.7974704 L30.5650523,60.6797463 L31.1419185,59.7974704 C35.5527772,53.0507557 49.9445237,30.3219681 49.9445237,21.1131413 C49.9445237,10.4045028 41.2508876,1.69231481 30.5650523,1.69231481 Z M23.9997106,54.0104746 C9.97689515,54.8191797 1.59737996,57.9933366 1.59737996,60.5947025 C1.59737996,62.7854774 7.04462296,64.4595358 9.38657681,65.0777886 C13.3424968,66.1218343 20.2279699,67.3665145 30.5650523,67.3665145 C40.9075727,67.3665145 47.7914717,66.1248459 51.7449588,65.0832383 C54.0857678,64.4664196 59.5318659,62.7950861 59.5470353,60.5994351 C59.5471784,58.8387554 55.999401,57.4112238 53.8845587,56.7165319 C50.9522865,55.7533711 45.6677567,54.5020939 37.1448478,54.0104746 L36.7351311,53.9868114 L36.5188957,54.3363086 C33.5884839,59.0733789 31.5221551,62.2155547 31.2820207,62.5020936 C31.062637,62.7615275 30.8303735,62.8943278 30.59396,62.8943278 C30.2758321,62.8943278 29.9909051,62.6721813 29.8860073,62.5319235 C29.6155342,62.1659338 27.4413023,58.8882329 24.6255196,54.3363086 L24.4092842,53.9868114 L23.9997106,54.0104746 Z M30.579363,68.9816302 C22.6761095,68.9816302 14.9789308,68.1881268 9.46127891,66.8044795 C5.92781221,65.9184748 1.43107477e-05,63.9353617 1.43107477e-05,60.6090438 C1.43107477e-05,58.9671099 1.44811887,56.6128444 8.34718721,54.7216589 C13.0449763,53.4339548 18.5445967,52.8221556 22.3310774,52.5357601 L23.4481744,52.4511465 L22.8697339,51.4897067 C11.8925318,33.2440052 9.58821525,24.9001014 9.58821525,21.1131413 C9.58821525,9.52179665 18.9983905,0.0915404305 30.5650523,0.0915404305 C42.1317141,0.0915404305 51.5418893,9.52179665 51.5418893,21.1131413 C51.5418893,24.899958 49.2377158,33.2438617 38.2603706,51.4897067 L37.6819302,52.4511465 L38.7991703,52.5357601 C42.5872252,52.822299 48.0898508,53.4342417 52.7920762,54.7216589 C59.7004466,56.613418 61.1549909,58.9681138 61.1585686,60.6106213 C61.1585686,63.9347881 55.2274793,65.918188 51.6920091,66.8044795 C46.172783,68.1881268 38.4774647,68.9816302 30.579363,68.9816302 Z" id="Fill-1" fill="#231F20" mask="url(#mask-2)"></path>
                    </g>
                    <path d="M30.5650523,14.0060301 C26.626019,14.0060301 23.4212702,17.2176177 23.4212702,21.1650568 C23.4212702,25.1124958 26.626019,28.3240835 30.5650523,28.3240835 C34.5040856,28.3240835 37.7088344,25.1124958 37.7088344,21.1650568 C37.7088344,17.2176177 34.5040856,14.0060301 30.5650523,14.0060301 M30.5650523,29.9248579 C25.7451925,29.9248579 21.8239045,25.995202 21.8239045,21.1650568 C21.8239045,16.3349115 25.7451925,12.4052557 30.5650523,12.4052557 C35.3850552,12.4052557 39.3062001,16.3349115 39.3062001,21.1650568 C39.3062001,25.995202 35.3850552,29.9248579 30.5650523,29.9248579" id="Fill-4" fill="#231F20"></path>
                </g>
            </g>
        </g>
    </g>
</svg>