<?xml version="1.0" encoding="UTF-8" standalone="no"?>
<svg width="19px" height="19px" viewBox="0 0 19 19" version="1.1" xmlns="http://www.w3.org/2000/svg" xmlns:xlink="http://www.w3.org/1999/xlink">
    <!-- Generator: Sketch 49.3 (51167) - http://www.bohemiancoding.com/sketch -->
    <title>cancel hover</title>
    <desc>Created with Sketch.</desc>
    <defs></defs>
    <g id="Desktop" stroke="none" stroke-width="1" fill="none" fill-rule="evenodd">
        <g id="Toyota-vehicle-gallery-overlay" transform="translate(-1391.000000, -30.000000)" fill="#FFFFFF" fill-rule="nonzero">
            <g id="Group" transform="translate(1338.000000, 30.000000)">
                <g id="cancel-hover" transform="translate(53.000000, 0.000000)">
                    <path d="M10.5291111,9.48155556 L18.746037,1.26459259 C19.0353333,0.975296296 19.0353333,0.506259259 18.746037,0.217 C18.4567407,-0.0722592593 17.9877037,-0.0722962963 17.6984444,0.217 L9.48148148,8.43396296 L1.26455556,0.217 C0.975259259,-0.0722962963 0.506222222,-0.0722962963 0.216962963,0.217 C-0.0722962963,0.506296296 -0.0723333333,0.975333333 0.216962963,1.26459259 L8.43388889,9.48151852 L0.216962963,17.6984815 C-0.0723333333,17.9877778 -0.0723333333,18.4568148 0.216962963,18.7460741 C0.361592593,18.8907037 0.551185185,18.963 0.740777778,18.963 C0.93037037,18.963 1.11992593,18.8907037 1.26459259,18.7460741 L9.48148148,10.5291481 L17.6984074,18.7460741 C17.843037,18.8907037 18.0326296,18.963 18.2222222,18.963 C18.4118148,18.963 18.6013704,18.8907037 18.746037,18.7460741 C19.0353333,18.4567778 19.0353333,17.9877407 18.746037,17.6984815 L10.5291111,9.48155556 Z" id="Shape-Copy"></path>
                </g>
            </g>
        </g>
    </g>
</svg>