<?xml version="1.0" encoding="UTF-8" standalone="no"?>
<svg width="23px" height="24px" viewBox="0 0 23 24" version="1.1" xmlns="http://www.w3.org/2000/svg" xmlns:xlink="http://www.w3.org/1999/xlink">
    <!-- Generator: sketchtool 49.1 (51147) - http://www.bohemiancoding.com/sketch -->
    <title>1559E1E3-2F35-4E37-B6CE-1AFBE2EB2A49</title>
    <desc>Created with sketchtool.</desc>
    <defs></defs>
    <g id="Desktop" stroke="none" stroke-width="1" fill="none" fill-rule="evenodd">
        <g id="Get-in-touch" transform="translate(-975.000000, -923.000000)" fill="#000000" fill-rule="nonzero">
            <g id="Contact-Form" transform="translate(935.000000, 853.000000)">
                <g id="check-form" transform="translate(40.000000, 70.000000)">
                    <path d="M17.7769386,12.724807 L17.7769386,1.93291076 L1.90469339,1.93291076 L1.90469339,22.0671445 L9.20590002,22.0671445 C9.72969479,22.0671445 10.1582195,22.5020177 10.1582195,23.0335723 C10.1582195,23.5651269 9.72969479,24 9.20590002,24 L0.952319458,24 C0.428524691,24 0,23.5651269 0,23.0335723 L0,0.966427742 C-4.83801173e-17,0.434873137 0.428579162,0 0.952319458,0 L18.7292035,0 C19.2529983,0 19.681523,0.434873137 19.681523,0.966427742 L19.681523,12.724807 C19.681523,13.2563616 19.2529983,13.6912347 18.7292035,13.6912347 C18.2054088,13.6912347 17.7769386,13.2563616 17.7769386,12.724807 Z M22.6814682,15.0765049 C22.2846457,14.7221168 21.6815409,14.7543439 21.3323263,15.1570452 L16.1103387,21.0523484 L13.4914193,18.4912568 C13.1105024,18.1207827 12.5073431,18.1368687 12.1422774,18.523484 C11.7772116,18.9100993 11.7930627,19.5221389 12.1740341,19.892613 L15.5071794,23.1462844 C15.6817595,23.3234508 15.919853,23.4201323 16.1737976,23.4201323 C16.1896487,23.4201323 16.1896487,23.4201323 16.2055543,23.4201323 C16.4594988,23.4040464 16.7134434,23.291279 16.8721724,23.0979713 L22.7449271,16.4617199 C23.1099929,16.0429327 23.0782362,15.4308931 22.6814682,15.0765049 Z M14.2850098,5.63759651 L5.71402569,5.63759651 C5.19023092,5.63759651 4.76170623,6.07246964 4.76170623,6.60402425 C4.76170623,7.13557885 5.19023092,7.57045199 5.71402569,7.57045199 L14.2850098,7.57045199 C14.8088045,7.57045199 15.2373292,7.13557885 15.2373292,6.60402425 C15.2373292,6.07246964 14.8088045,5.63759651 14.2850098,5.63759651 Z M15.2373837,11.9194597 C15.2373837,11.3879051 14.808859,10.953032 14.2850642,10.953032 L5.71402569,10.953032 C5.19023092,10.953032 4.76170623,11.3879051 4.76170623,11.9194597 C4.76170623,12.4510144 5.19023092,12.8858875 5.71402569,12.8858875 L14.2850098,12.8858875 C14.8088045,12.8858875 15.2373837,12.4510144 15.2373837,11.9194597 Z M5.71402569,16.107387 C5.19023092,16.107387 4.76170623,16.5422601 4.76170623,17.0738147 C4.76170623,17.6053694 5.19023092,18.0402425 5.71402569,18.0402425 L8.25358056,18.0402425 C8.77737533,18.0402425 9.20590002,17.6053694 9.20590002,17.0738147 C9.20590002,16.5422601 8.77737533,16.107387 8.25358056,16.107387 L5.71402569,16.107387 Z" id="Shape"></path>
                </g>
            </g>
        </g>
    </g>
</svg>