<?xml version="1.0" encoding="UTF-8" standalone="no"?>
<svg width="26px" height="27px" viewBox="0 0 26 27" version="1.1" xmlns="http://www.w3.org/2000/svg" xmlns:xlink="http://www.w3.org/1999/xlink">
    <!-- Generator: sketchtool 49.1 (51147) - http://www.bohemiancoding.com/sketch -->
    <title>5273183A-CCF2-48AC-A9B5-E4C4DFC3D9AE</title>
    <desc>Created with sketchtool.</desc>
    <defs></defs>
    <g id="Desktop" stroke="none" stroke-width="1" fill="none" fill-rule="evenodd">
        <g id="Get-in-touch" transform="translate(-174.000000, -922.000000)" fill="#000000" stroke="#000000" stroke-width="0.571428571">
            <g id="FB-messenger" transform="translate(135.000000, 853.000000)">
                <g id="Group-3" transform="translate(40.000000, 70.000000)">
                    <g id="fb-messenger">
                        <path d="M21.3823125,17.2389706 C19.626,19.6389706 16.9636875,21.2148897 13.8856875,21.6768382 C13.286625,21.7665441 12.6778125,21.8121324 12.07575,21.8121324 L12.0755625,21.8121324 C10.810125,21.8121324 9.5608125,21.6148897 8.3623125,21.2259191 C8.2854375,21.2009191 8.2014375,21.2095588 8.1316875,21.2498162 L3.225,24.0685662 L4.410375,19.2332721 C4.43475,19.1340074 4.4011875,19.0295956 4.323,18.9619485 C2.445375,17.3382353 1.2294375,15.2351103 0.80625,12.8797794 C0.3195,10.1685662 0.9609375,7.43253676 2.612625,5.17555147 C4.3693125,2.77518382 7.0329375,1.19871324 10.1131875,0.736397059 C10.7115,0.646691176 11.320125,0.601102941 11.9221875,0.601102941 C17.5213125,0.601102941 22.259625,4.35790441 23.188875,9.53382353 C23.6758125,12.2452206 23.0341875,14.9818015 21.3823125,17.2389706 Z M23.7429375,9.43805147 C22.76625,3.99816176 17.794875,0.0496323529 11.9221875,0.0496323529 C11.2918125,0.0496323529 10.6545,0.0972426471 10.027875,0.191176471 C6.7970625,0.676102941 4.00125,2.33216912 2.1556875,4.85404412 C0.4149375,7.23253676 -0.261,10.1169118 0.252375,12.9753676 C0.688125,15.4016544 1.921875,17.5727941 3.82425,19.2645221 L2.52375,24.5694853 C2.4973125,24.6770221 2.539125,24.7895221 2.6296875,24.8555147 C2.6791875,24.8913603 2.7380625,24.9097426 2.797125,24.9097426 C2.84625,24.9097426 2.895375,24.8970588 2.9394375,24.871875 L8.307,21.7880515 C9.5255625,22.1700368 10.7926875,22.3636029 12.0755625,22.3636029 C12.0755625,22.3636029 12.0755625,22.3636029 12.07575,22.3636029 C12.7063125,22.3636029 13.3438125,22.3158088 13.970625,22.221875 C17.1995625,21.7375 19.9940625,20.0819853 21.8394375,17.5604779 C23.5801875,15.1816176 24.256125,12.2970588 23.7429375,9.43805147 Z" id="Fill-4"></path>
                        <path d="M13.3831875,14.5825368 C12.8251875,14.04375 11.2261875,12.5141544 10.251375,11.7303309 C10.2,11.6889706 10.1368125,11.6678309 10.072875,11.6678309 C10.0310625,11.6678309 9.98925,11.6768382 9.9500625,11.6954044 C8.3308125,12.4661765 6.768375,13.2566176 5.418,13.9549632 C6.038625,13.3325368 6.7365,12.6680147 7.458375,11.9806985 C8.03775,11.4288603 8.6368125,10.8584559 9.195375,10.3088235 C9.3555,10.1512868 10.222125,9.28161765 10.6168125,8.88547794 C11.010375,9.26029412 11.85825,10.0685662 12.02625,10.2369485 C12.3890625,10.6003676 12.718875,10.8698529 13.0378125,11.1305147 C13.2759375,11.325 13.50075,11.5088235 13.724625,11.7200368 C13.80975,11.8003676 13.9365,11.8198529 14.043,11.7693015 C15.5735625,11.0384191 17.0818125,10.2884191 18.5445,9.53125 C16.6933125,11.4174632 14.110875,13.8887868 13.3831875,14.5825368 Z M19.7859375,8.25386029 C17.921625,9.246875 15.966,10.234375 13.970625,11.1900735 C13.7818125,11.0205882 13.5943125,10.8674632 13.398,10.7069853 C13.0899375,10.4551471 12.7711875,10.1946691 12.4280625,9.85091912 C12.2038125,9.62647059 10.8643125,8.35238971 10.8073125,8.29816176 C10.6959375,8.19227941 10.51875,8.19485294 10.4101875,8.30349265 C10.4101875,8.30349265 9.0046875,9.71488971 8.79675,9.91966912 C8.24175,10.4659926 7.6441875,11.0349265 7.0665,11.5849265 C5.8494375,12.7439338 4.699875,13.8386029 3.859875,14.7878676 C3.771,14.8884191 3.7678125,15.0367647 3.852375,15.140625 C3.9073125,15.2080882 3.9890625,15.2444853 4.0725,15.2444853 C4.1175,15.2444853 4.1630625,15.2338235 4.2050625,15.2117647 C5.7765,14.3873162 7.848375,13.3132353 10.03275,12.2693015 C11.2055625,13.2380515 13.1625,15.1443015 13.183125,15.1641544 C13.2916875,15.2700368 13.4668125,15.2711397 13.576875,15.1669118 C13.623,15.1231618 18.2113125,10.7647059 20.128875,8.68088235 C20.2209375,8.58106618 20.226,8.43106618 20.14125,8.32536765 C20.0565,8.21985294 19.906125,8.18952206 19.7859375,8.25386029 Z" id="Fill-5"></path>
                    </g>
                </g>
            </g>
        </g>
    </g>
</svg>