<?xml version="1.0" encoding="UTF-8" standalone="no"?>
<svg width="14px" height="20px" viewBox="0 0 14 20" version="1.1" xmlns="http://www.w3.org/2000/svg" xmlns:xlink="http://www.w3.org/1999/xlink">
    <!-- Generator: sketchtool 48.2 (47327) - http://www.bohemiancoding.com/sketch -->
    <title>BBA25EB2-872C-49F3-8DFD-77D33C207F92</title>
    <desc>Created with sketchtool.</desc>
    <defs></defs>
    <g id="Navigation-/-Mobile-/-main-nav" stroke="none" stroke-width="1" fill="none" fill-rule="evenodd" transform="translate(-280.000000, -17.000000)">
        <g id="Main-Nav" fill="#000000">
            <path d="M286.999989,17 C283.133725,17 279.999989,20.26578 279.999989,24.2954146 C279.999989,30.9344545 286.999989,37 286.999989,37 C286.999989,37 293.999989,30.9341096 293.999989,24.2954146 C293.999989,20.265895 290.866033,17 286.999989,17 M286.999989,18.4275861 C290.104384,18.4275861 292.630124,21.0597519 292.630124,24.2954146 C292.630124,28.8448611 288.773236,33.2696999 286.998445,35.0649018 C286.368168,34.4284138 285.474926,33.4589105 284.581464,32.261113 C283.116407,30.296817 281.369854,27.3202557 281.369854,24.2954146 C281.369854,21.0597519 283.895594,18.4275861 286.999989,18.4275861 M286.999989,21.7101606 C285.300977,21.7101606 283.923501,23.1456784 283.923501,24.9166255 C283.923501,26.6866529 285.300977,28.1224007 286.999989,28.1224007 C288.699001,28.1224007 290.076477,26.6866529 290.076477,24.9166255 C290.076477,23.1456784 288.699001,21.7101606 286.999989,21.7101606 M286.999989,23.1377467 C287.940882,23.1377467 288.706612,23.935742 288.706612,24.9166255 C288.706612,25.8970492 287.940882,26.6946996 286.999989,26.6946996 C286.059096,26.6946996 285.293366,25.8970492 285.293366,24.9166255 C285.293366,23.935742 286.059096,23.1377467 286.999989,23.1377467" id="find-a-center"></path>
        </g>
    </g>
</svg>