<?xml version="1.0" encoding="UTF-8" standalone="no"?>
<svg width="30px" height="30px" viewBox="0 0 30 30" version="1.1" xmlns="http://www.w3.org/2000/svg" xmlns:xlink="http://www.w3.org/1999/xlink">
    <!-- Generator: sketchtool 49.1 (51147) - http://www.bohemiancoding.com/sketch -->
    <title>D225C541-480B-4985-9072-CE7060758DE4</title>
    <desc>Created with sketchtool.</desc>
    <defs></defs>
    <g id="Desktop" stroke="none" stroke-width="1" fill="none" fill-rule="evenodd">
        <g id="Find-a-center03" transform="translate(-182.000000, -648.000000)" fill="#D40618" fill-rule="nonzero">
            <g id="Expandable-view" transform="translate(30.000000, 437.000000)">
                <g id="Services-Icons" transform="translate(0.000000, 187.000000)">
                    <g id="Group-5" transform="translate(10.000000, 22.000000)">
                        <g id="Service-Center" transform="translate(110.000000, 2.000000)">
                            <g id="wrench" transform="translate(32.000000, 0.000000)">
                                <path d="M29.0207647,2.72578947 L27.211,0.926608187 C26.0307647,-0.246725146 24.0420588,-0.31497076 22.7777059,0.774561404 L19.5970588,3.51549708 C19.5563529,3.5505848 19.5214118,3.59187135 19.4936471,3.63777778 L16.3974706,8.76502924 L14.4094706,9.42380117 C14.2414706,9.47947368 14.1144706,9.61766082 14.0738235,9.78894737 C14.0331765,9.96023392 14.0845882,10.1402339 14.2097647,10.2647368 L19.6277059,15.6509357 C19.7246471,15.7472515 19.8550588,15.7996491 19.9889412,15.7996491 C20.0280588,15.7996491 20.0674118,15.7952047 20.1062941,15.7860819 C20.2785882,15.7456725 20.4175882,15.6194152 20.4735882,15.4523977 L21.1364118,13.4753801 L26.3696471,10.3338596 C26.4157059,10.3061404 26.4571176,10.271462 26.4922941,10.2308772 L29.1840588,7.12976608 C30.2738824,5.87432749 30.2005294,3.89871345 29.0207647,2.72578947 Z M28.4106471,6.46619883 L25.772,9.50608187 L20.4472941,12.7025146 C20.3433529,12.7649123 20.2651765,12.8621053 20.2267647,12.9767251 L19.7657647,14.3516959 L18.5448824,13.1379532 C18.5446471,13.1377193 18.5444706,13.1374269 18.5442353,13.137193 L16.7381765,11.3418129 C16.738,11.3416374 16.7377647,11.3415205 16.7375882,11.341345 L15.5165882,10.1274854 L16.8996471,9.66918129 C17.0152941,9.63081871 17.1133529,9.55269006 17.1760588,9.44883041 L20.3277059,4.22994152 L23.4468824,1.5419883 C24.3147059,0.794035088 25.6791765,0.840116959 26.4885294,1.6448538 L28.2983529,3.44403509 C29.1081176,4.24894737 29.1584706,5.60473684 28.4106471,6.46619883 Z" id="Shape"></path>
                                <path d="M27.5727059,20.4047953 C26.0729412,18.9138596 23.8655882,18.395614 21.8656471,19.0401754 L11.0096471,8.24766082 C11.6579412,6.2594152 11.1366471,4.06491228 9.637,2.57391813 C8.057,1.00327485 5.69164706,0.511929825 3.61082353,1.32269006 C3.45041176,1.38520468 3.33241176,1.52391813 3.29717647,1.69163743 C3.26194118,1.85929825 3.31411765,2.03339181 3.436,2.1545614 L6.68547059,5.38497076 L4.51823529,7.53947368 L1.26882353,4.30900585 C1.14688235,4.18789474 0.972,4.13614035 0.803176471,4.17099415 C0.634470588,4.20602339 0.494882353,4.32327485 0.432058824,4.48280702 C-0.383352941,6.55134503 0.110705882,8.90292398 1.69064706,10.4737427 C3.19041176,11.9646784 5.39776471,12.4830409 7.39770588,11.8383626 L11.457,15.8739181 L6.40188235,20.8995906 L3.18670588,22.6867251 C3.09729412,22.7364327 3.02494118,22.8117544 2.97911765,22.9028655 L1.53435294,25.7754971 C1.436,25.9709942 1.47452941,26.2071345 1.63,26.3617544 L3.43594118,28.157193 C3.534,28.2546784 3.66476471,28.3059064 3.79729412,28.3059064 C3.87488235,28.3059064 3.95305882,28.2883626 4.02564706,28.2522807 L6.91517647,26.8159649 C7.00682353,26.7704094 7.08258824,26.6984795 7.13258824,26.6095906 L8.93023529,23.4131579 L13.9854706,18.3876608 L18.2537647,22.6309942 C17.6054118,24.6192398 18.1267647,26.8137427 19.6264706,28.3047368 C20.7007647,29.3726901 22.138,29.9415789 23.6021176,29.9415789 C24.2912941,29.9415205 24.9865882,29.8154386 25.6525882,29.5560234 C25.813,29.4935088 25.931,29.3547953 25.9662353,29.187076 C26.0014706,29.0194152 25.9492941,28.8453216 25.8274118,28.724152 L22.5779412,25.4936842 L24.7451176,23.3392398 L27.9945294,26.5696491 C28.1164118,26.6908187 28.2914118,26.742807 28.4601765,26.7076608 C28.6288824,26.6726316 28.7684706,26.5553801 28.8312941,26.395848 C29.6467647,24.327193 29.1527059,21.975614 27.5727059,20.4047953 Z M8.15764706,22.7447368 C8.12441176,22.7777778 8.096,22.8152047 8.07305882,22.8560234 L6.31758824,25.9774269 L3.89805882,27.180117 L2.61276471,25.9023392 L3.82247059,23.4969006 L6.96217647,21.7517544 C7.00323529,21.7289474 7.04088235,21.7007018 7.07411765,21.6676608 L12.1793529,16.5922222 L13.2629412,17.6694737 L8.15764706,22.7447368 Z M28.1094118,25.2473684 L25.1063529,22.2618713 C24.9068235,22.0636257 24.5834706,22.0636257 24.3839412,22.2618713 L21.4944118,25.1345029 C21.3986471,25.2297661 21.3448235,25.3588889 21.3448235,25.4936257 C21.3448235,25.6283626 21.3986471,25.7574269 21.4944118,25.8527485 L24.4975294,28.8383041 C23.0084706,29.1324561 21.4468824,28.6781287 20.3488824,27.5865497 C19.0561176,26.301345 18.6518235,24.377076 19.3190588,22.684386 C19.3931176,22.4964327 19.3482353,22.2827485 19.2047059,22.14 L7.89158824,10.8930994 C7.79394118,10.7960819 7.66329412,10.744386 7.53023529,10.744386 C7.46764706,10.744386 7.40447059,10.755848 7.344,10.7794152 C5.64141176,11.442807 3.70582353,11.0407602 2.413,9.75567251 C1.31494118,8.66397661 0.857882353,7.11146199 1.15394118,5.63122807 L4.157,8.61678363 C4.35652941,8.81508772 4.67988235,8.81497076 4.87941176,8.61678363 L7.76894118,5.74415205 C7.96841176,5.54578947 7.96841176,5.22432749 7.76894118,5.02596491 L4.76588235,2.04040936 C6.25494118,1.74567251 7.81641176,2.20040936 8.91452941,3.29216374 C10.2072941,4.57736842 10.6115882,6.50163743 9.94435294,8.19432749 C9.87029412,8.3822807 9.91517647,8.59596491 10.0587059,8.73871345 L21.3717059,19.9854971 C21.5153529,20.1281871 21.7304118,20.172807 21.9192941,20.0991813 C23.622,19.4360234 25.5574706,19.8377778 26.8502941,21.122924 C27.9484706,22.2146199 28.4054118,23.767193 28.1094118,25.2473684 Z" id="Shape"></path>
                            </g>
                        </g>
                    </g>
                </g>
            </g>
        </g>
    </g>
</svg>