<?xml version="1.0" encoding="UTF-8" standalone="no"?>
<svg width="45px" height="22px" viewBox="0 0 45 22" version="1.1" xmlns="http://www.w3.org/2000/svg" xmlns:xlink="http://www.w3.org/1999/xlink">
    <!-- Generator: sketchtool 49.1 (51147) - http://www.bohemiancoding.com/sketch -->
    <title>25D212C2-631A-4B41-849F-A6BBBF9E98DF</title>
    <desc>Created with sketchtool.</desc>
    <defs></defs>
    <g id="Desktop" stroke="none" stroke-width="1" fill="none" fill-rule="evenodd">
        <g id="Find-a-center03" transform="translate(-53.000000, -651.000000)" fill-rule="nonzero">
            <g id="Expandable-view" transform="translate(30.000000, 437.000000)">
                <g id="Services-Icons" transform="translate(0.000000, 187.000000)">
                    <g id="Group-5" transform="translate(10.000000, 22.000000)">
                        <g id="Showroom" transform="translate(0.000000, 5.000000)">
                            <g id="car" transform="translate(13.000000, 0.000000)">
                                <g id="Group" transform="translate(8.595908, 12.659847)">
                                    <path d="M22.2092967,5.20193095 L7.73782609,5.20193095 C7.38841432,5.20193095 7.10483376,4.91835038 7.10483376,4.56893862 C7.10483376,4.21952685 7.38841432,3.93594629 7.73782609,3.93594629 L22.2092967,3.93594629 C22.5587084,3.93594629 22.842289,4.21952685 22.842289,4.56893862 C22.842289,4.91835038 22.5587084,5.20193095 22.2092967,5.20193095 Z" id="Shape" fill="#000000"></path>
                                    <path d="M4.29561381,8.64540921 C2.04722506,8.64540921 0.217877238,6.81732737 0.217877238,4.56767263 C0.217877238,2.3180179 2.04595908,0.489936061 4.29561381,0.489936061 C6.54273657,0.489936061 8.3720844,2.3180179 8.3720844,4.56767263 C8.3720844,6.81732737 6.54273657,8.64540921 4.29561381,8.64540921 Z M4.29561381,1.7571867 C2.74478261,1.7571867 1.48386189,3.01810742 1.48386189,4.56893862 C1.48386189,6.11976982 2.74478261,7.38069054 4.29561381,7.38069054 C5.84517903,7.38069054 7.10609974,6.11976982 7.10609974,4.56893862 C7.10609974,3.01810742 5.84391304,1.7571867 4.29561381,1.7571867 Z" id="Shape" fill="#D40618"></path>
                                    <path d="M25.6540409,8.64540921 C23.4056522,8.64540921 21.5763043,6.81732737 21.5763043,4.56767263 C21.5763043,2.3180179 23.4043862,0.489936061 25.6540409,0.489936061 C27.9036957,0.489936061 29.7317775,2.3180179 29.7317775,4.56767263 C29.7317775,6.81732737 27.9024297,8.64540921 25.6540409,8.64540921 Z M25.6540409,1.7571867 C24.1032097,1.7571867 22.842289,3.01810742 22.842289,4.56893862 C22.842289,6.11976982 24.1032097,7.38069054 25.6540409,7.38069054 C27.2048721,7.38069054 28.4657928,6.11976982 28.4657928,4.56893862 C28.4657928,3.01810742 27.2036061,1.7571867 25.6540409,1.7571867 Z" id="Shape" fill="#D40618"></path>
                                </g>
                                <path d="M30.8102685,17.8617775 L16.336266,17.8617775 C15.9868542,17.8617775 15.7032737,17.5781969 15.7032737,17.2287852 C15.7032737,16.8793734 15.9868542,16.5957928 16.336266,16.5957928 L30.8102685,16.5957928 C31.1596803,16.5957928 31.4432609,16.8793734 31.4432609,17.2287852 C31.4432609,17.5781969 31.1596803,17.8617775 30.8102685,17.8617775 Z" id="Shape" fill="#D40618"></path>
                                <path d="M40.7330563,17.8617775 L37.6908951,17.8617775 C37.3414834,17.8617775 37.0579028,17.5781969 37.0579028,17.2287852 C37.0579028,16.8793734 37.3414834,16.5957928 37.6908951,16.5957928 L40.7330563,16.5957928 C41.5167008,16.5957928 42.1737468,16.0336957 42.2940153,15.258913 L42.9687852,10.9381074 C43.0156266,10.6355371 42.9409335,10.3342327 42.7548338,10.0898977 C42.57,9.84682864 42.3028772,9.69237852 41.9977749,9.65439898 L33.5650512,8.62641944 C33.4435166,8.61122762 33.328312,8.56185422 33.2346292,8.48336317 L25.6121355,2.07621483 C25.1095396,1.65337596 24.4702174,1.42043478 23.8119054,1.42043478 L11.8875959,1.42043478 C11.298913,1.42043478 10.7583376,1.71667519 10.4405754,2.21294118 L6.87682864,7.78960358 C6.79707161,7.91746803 6.67173913,8.0111509 6.52741688,8.05419437 L2.22306905,9.35182864 C1.5837468,9.54425831 1.18116368,10.1861125 1.28370844,10.8469565 L1.88631714,14.7069437 C2.05722506,15.7994885 2.98392583,16.5932609 4.09039642,16.5932609 L9.44424552,16.5932609 C9.79365729,16.5932609 10.0772379,16.8768414 10.0772379,17.2262532 C10.0772379,17.575665 9.79365729,17.8592455 9.44424552,17.8592455 L4.08786445,17.8592455 C2.35346547,17.8592455 0.898849105,16.6160486 0.632992327,14.9019054 L0.0303836317,11.0419182 C-0.168375959,9.76074169 0.615268542,8.5137468 1.85466752,8.14028133 L5.93620205,6.90974425 L9.37461637,1.52930946 C9.92531969,0.669705882 10.8646803,0.155716113 11.8875959,0.155716113 L23.8144373,0.155716113 C24.7689898,0.155716113 25.6969565,0.493734015 26.4274297,1.10773657 L33.905601,7.39335038 L42.1522251,8.3985422 C42.8004092,8.47829923 43.3726343,8.80618926 43.7650895,9.32650895 C44.1588107,9.84556266 44.3195908,10.4874169 44.219578,11.1330691 L43.5448082,15.4538747 C43.3283248,16.8489898 42.1446292,17.8617775 40.7330563,17.8617775 Z" id="Shape" fill="#D40618"></path>
                                <path d="M26.7882353,9.12015345 L12.2699233,9.12015345 C11.9205115,9.12015345 11.6369309,8.83657289 11.6369309,8.48716113 C11.6369309,8.13774936 11.9205115,7.8541688 12.2699233,7.8541688 L26.7882353,7.8541688 C27.1376471,7.8541688 27.4212276,8.13774936 27.4212276,8.48716113 C27.4212276,8.83657289 27.1376471,9.12015345 26.7882353,9.12015345 Z" id="Shape" fill="#D40618"></path>
                            </g>
                        </g>
                    </g>
                </g>
            </g>
        </g>
    </g>
</svg>