<?xml version="1.0" encoding="UTF-8" standalone="no"?>
<svg width="30px" height="30px" viewBox="0 0 30 30" version="1.1" xmlns="http://www.w3.org/2000/svg" xmlns:xlink="http://www.w3.org/1999/xlink">
    <!-- Generator: sketchtool 49.1 (51147) - http://www.bohemiancoding.com/sketch -->
    <title>E2A837A9-8545-487E-89A1-6E66D9F8E8A8</title>
    <desc>Created with sketchtool.</desc>
    <defs></defs>
    <g id="Desktop" stroke="none" stroke-width="1" fill="none" fill-rule="evenodd">
        <g id="Find-a-center03" transform="translate(-309.000000, -647.000000)" fill="#D40618" fill-rule="nonzero">
            <g id="Expandable-view" transform="translate(30.000000, 437.000000)">
                <g id="Services-Icons" transform="translate(0.000000, 187.000000)">
                    <g id="Group-5" transform="translate(10.000000, 22.000000)">
                        <g id="Parts-Center" transform="translate(244.000000, 1.000000)">
                            <g id="alloy-wheel" transform="translate(25.000000, 0.000000)">
                                <path d="M15,0 C6.75,0 0,6.75 0,15 C0,23.25 6.75,30 15,30 C23.25,30 30,23.25 30,15 C30,6.75 23.25,0 15,0 Z M15,28.9999805 C7.30001953,28.9999805 1.00001953,22.6999805 1.00001953,15 C1.00001953,7.30001953 7.30001953,1.00001953 15,1.00001953 C22.6999805,1.00001953 28.9999805,7.30001953 28.9999805,15 C28.9999805,22.6999805 22.6999805,28.9999805 15,28.9999805 Z" id="Shape"></path>
                                <path d="M16.7896875,4.14744141 L16.6000195,4.10003906 C16.35,4.05005859 16.1500195,4.00001953 15.9,4.00001953 C15.3499805,3.95003906 14.7,3.95003906 14.1499805,4.00001953 C13.8999609,4.05 13.6999805,4.05 13.4499609,4.10003906 L12.9999609,4.15001953 L12.9999609,4.1840625 C10.3674609,4.67273438 8.05669922,6.10693359 6.43570312,8.11787109 L6.39996094,8.1 L6.14994141,8.44998047 C5.64996094,9.15 5.19996094,9.84996094 4.89996094,10.5999609 L4.74996094,10.9999805 L4.75576172,11.0040234 C4.26826172,12.2441602 3.99996094,13.5922266 3.99996094,15 C3.99996094,16.1473828 4.17837891,17.2549805 4.50814453,18.2970117 L4.49994141,18.3 L4.64994141,18.75 C4.89996094,19.3999805 5.19996094,20.0500195 5.54994141,20.6500195 C5.54994141,20.7500391 5.59992187,20.8000195 5.64996094,20.85 C5.74998047,21 5.89998047,21.1999805 5.99994141,21.3499805 L6.24996094,21.6499805 L6.25265625,21.6488086 C8.15080078,24.1364648 11.0811328,25.7993555 14.3896289,25.9825781 C14.581875,25.9995117 14.7907031,25.9999219 14.9999414,25.9999219 C15.2091797,25.9999219 15.4179492,25.9995117 15.6102539,25.9825781 C18.8782617,25.801582 21.7775391,24.1770703 23.6773242,21.7398633 L23.6999414,21.7499414 L23.9499609,21.3999609 C24.0999609,21.2499609 24.1999805,21.0499805 24.2999414,20.8999805 C24.2999414,20.8793555 24.3087305,20.8500586 24.3222656,20.8194141 C24.345,20.7832617 24.3679102,20.7472852 24.3902344,20.7108398 C24.393457,20.707207 24.3966797,20.7032227 24.3999609,20.6999414 C24.4199414,20.6657227 24.4391602,20.6307422 24.4587891,20.5962305 C25.4366016,18.954082 25.9999219,17.0397656 25.9999219,14.9999414 C25.9999805,9.55910156 21.9962695,5.00871094 16.7896875,4.14744141 Z M16.0000195,20.5000195 L16.0000195,24.9498047 C15.9992578,24.9498633 15.9984375,24.9499219 15.9976758,24.9500391 C15.9469922,24.9500391 15.8493164,24.9500391 15.8000391,24.9500391 C15.2500195,25.0000195 14.7500391,25.0000195 14.2000195,24.9500391 C14.175,24.9500391 14.1375,24.9500391 14.1,24.9500391 L14.1,20.5000195 C14.1,19.7500195 13.7500195,19.1000391 13.0999805,18.7000195 C12.4499414,18.3 11.7,18.3 11.0499609,18.6 L6.69996094,20.4499805 C6.64998047,20.4 6.64998047,20.3499609 6.59994141,20.2999805 L6.49992188,20.1499805 C6.24990234,19.7499609 6.04992188,19.35 5.84994141,18.9 L9.84996094,17.4 L9.89994141,17.3500195 C10.4499609,17.0500195 10.8499219,16.4000391 10.9499414,15.6500391 C11.0499609,14.9000391 10.8499219,14.1500391 10.3499414,13.6500586 L6.00164063,10.6512305 C6.211875,10.2195117 6.45216797,9.80478516 6.72,9.41009766 L10.5999609,11.3500781 C11.2499414,11.8000781 12.1999805,11.8000781 12.9499805,11.4000586 C13.5999609,11.0000391 13.9999805,10.4000391 13.9999805,9.65003906 L13.9999805,5.05019531 C14.0007422,5.05013672 14.0015625,5.05007813 14.0023242,5.04996094 C14.0530078,5.04996094 14.1506836,5.04996094 14.1999609,5.04996094 C14.7499805,4.99998047 15.2999414,4.99998047 15.7999805,5.04996094 C15.8492578,5.04996094 15.9469922,5.04996094 15.9976172,5.04996094 C15.9983789,5.05001953 15.9991992,5.05007813 15.9999609,5.05019531 L15.9999609,9.70001953 C15.9999609,10.35 16.2999609,10.95 16.8499805,11.3000391 C17.55,11.7000586 18.5499609,11.7500391 19.35,11.4000586 L23.25,9.40007813 C23.5000195,9.80009766 23.7499805,10.2500977 23.9500195,10.6500586 L19.7000391,13.6000781 L19.6500586,13.6500586 C19.1500781,14.1000586 18.9500391,14.8500586 19.0500586,15.6500391 C19.1500781,16.4000391 19.5500391,17.0500195 20.1000586,17.3500195 L24.2000391,18.8500195 C24.0000586,19.3000195 23.8000195,19.7000391 23.5500586,20.1 L23.4500391,20.25 C23.4000586,20.2999805 23.4000586,20.3500195 23.3500195,20.4 L19.05,18.6 C18.4000195,18.2500195 17.6500195,18.3 16.9999805,18.7000195 C16.3999805,19.0999805 16.0000195,19.7500195 16.0000195,20.5000195 Z M20.55,16.5499805 C20.25,16.35 20.0500195,15.9999609 19.9999805,15.6 C19.95,15.15 20.0499609,14.7 20.2999805,14.4499805 L24.4021875,11.6035547 C24.7886133,12.6651562 24.9999609,13.809082 24.9999609,15 C24.9999609,16.0488867 24.8358398,17.0612109 24.532793,18.0130664 L20.55,16.5499805 Z M22.6654688,8.59699219 L18.9,10.5 C18.45,10.7500195 17.8000195,10.6999805 17.4,10.4500195 C17.1499805,10.3000195 16.9999805,10.05 16.9999805,9.70001953 L16.9999805,5.20242188 C19.2537891,5.66460938 21.2371289,6.89144531 22.6654688,8.59699219 Z M13.0000195,5.20242188 L13.0000195,9.65003906 C13.0000195,10.1000391 12.75,10.3500586 12.5000391,10.5000586 C12.0500391,10.7000391 11.5000195,10.7000391 11.1000586,10.4500781 L7.35228516,8.57619141 C8.77921875,6.88148438 10.7554688,5.66267578 13.0000195,5.20242188 Z M4.99998047,15 C4.99998047,13.8045117 5.21279297,12.6563086 5.60208984,11.59125 L9.64998047,14.4 C9.9,14.6500195 9.99996094,15.1000195 9.94998047,15.5500195 C9.84996094,16.0000195 9.69996094,16.35 9.39996094,16.5 L5.44751953,17.9518945 C5.15689453,17.0179102 4.99998047,16.0263867 4.99998047,15 Z M7.20650391,21.2467969 L11.3500195,19.5 C11.7,19.3000195 12.1000195,19.35 12.45,19.5499805 C12.7999805,19.7499609 13.0000195,20.1 13.0000195,20.4999609 L13.0000195,24.7975781 C10.6780078,24.3214453 8.64316406,23.0335547 7.20650391,21.2467969 Z M16.9999805,24.7975781 L16.9999805,20.4999609 C16.9999805,20.0999414 17.1999609,19.7499609 17.4999609,19.5499805 C17.8499414,19.35 18.2499609,19.2999609 18.6499805,19.5 L22.7345508,21.3198633 C21.3014648,23.0687109 19.290293,24.3279492 16.9999805,24.7975781 Z" id="Shape"></path>
                                <path d="M15,12.4999805 C13.6000195,12.4999805 12.4999805,13.5999609 12.4999805,15 C12.4999805,16.3999805 13.5999609,17.5000195 15,17.5000195 C16.3999805,17.5000195 17.5000195,16.4000391 17.5000195,15 C17.5000195,13.6000195 16.3999805,12.4999805 15,12.4999805 Z M15,16.5 C14.1499805,16.5 13.5,15.8500195 13.5,15 C13.5,14.1499805 14.1499805,13.5 15,13.5 C15.8500195,13.5 16.5,14.1499805 16.5,15 C16.5,15.8500195 15.8500195,16.5 15,16.5 Z" id="Shape"></path>
                            </g>
                        </g>
                    </g>
                </g>
            </g>
        </g>
    </g>
</svg>