<?xml version="1.0" encoding="UTF-8" standalone="no"?>
<svg width="22px" height="22px" viewBox="0 0 22 22" version="1.1" xmlns="http://www.w3.org/2000/svg" xmlns:xlink="http://www.w3.org/1999/xlink">
    <!-- Generator: sketchtool 49.1 (51147) - http://www.bohemiancoding.com/sketch -->
    <title>1AC12351-0292-44C5-892D-100627175DD0</title>
    <desc>Created with sketchtool.</desc>
    <defs>
        <path d="M16.074403,22 C15.2422697,22 14.2372518,21.7914632 13.1320012,21.3743895 C10.7089259,20.4608637 8.07260377,18.6553384 5.7087263,16.2914725 C3.34417612,13.926934 1.53864193,11.2899522 0.624438888,8.86688876 C-0.206349012,6.66379808 -0.20836712,4.85558197 0.619729969,4.02816166 C0.738798356,3.90909385 0.859884852,3.78128096 0.985007564,3.64943187 C1.74045276,2.85497383 2.59411255,1.96095627 3.72559858,2.00131823 C4.50526107,2.0336078 5.26070626,2.5179514 6.03431443,3.48058431 C8.32015839,6.32341216 7.28957777,7.33649752 6.09687579,8.51103075 L5.88631982,8.71956758 C5.69123603,8.91465042 5.32259492,9.81808577 8.75203355,13.2475075 C9.87141094,14.3668794 10.8259761,15.1862273 11.5888211,15.6820068 C12.0691308,15.9941394 12.9281722,16.4663744 13.2806685,16.1138799 L13.4925699,15.8999614 C14.6657635,14.7099561 15.6788538,13.6827441 18.5196775,15.9665587 C19.4823152,16.740163 19.9659885,17.4949318 19.9982782,18.2759359 C20.0446947,19.4067436 19.1439457,20.2624173 18.348811,21.0171861 C18.217634,21.1423082 18.0898205,21.2633941 17.9707521,21.3817892 C17.5597307,21.7934813 16.9025001,22 16.074403,22 Z M3.64487425,2.67267228 C2.84099446,2.67267228 2.11514819,3.43685884 1.47271706,4.11292179 C1.34355813,4.24880707 1.21843542,4.38065616 1.09533082,4.50376016 C0.478462391,5.11995285 0.541023747,6.73914042 1.25408867,8.63009855 C2.13532927,10.965711 3.88637454,13.5179327 6.18499985,15.8165467 C8.48295245,18.1138153 11.0338413,19.864852 13.370138,20.7454155 C15.2611054,21.4598223 16.8803009,21.5203653 17.4958239,20.9048453 C17.6189285,20.7817413 17.7507783,20.6566192 17.8866642,20.5281336 C18.57753,19.871579 19.3612287,19.1275734 19.3269208,18.3021712 C19.3033762,17.7350855 18.8903367,17.1249471 18.0992383,16.4892462 C15.7319973,14.5855067 15.0700578,15.2575335 13.9722069,16.3708511 L13.756942,16.588133 C13.2322339,17.1135112 12.3799195,16.9971342 11.2228708,16.2450563 C10.4203364,15.7230415 9.42877252,14.8740948 8.27710541,13.7217606 C5.43090006,10.876242 4.52073324,9.13462313 5.41139168,8.24195097 L5.62598386,8.03005065 C6.74199773,6.93220516 7.41537318,6.2695962 5.51095169,3.90102146 C4.87390218,3.11059961 4.26443349,2.69756216 3.69734507,2.67334498 C3.67985479,2.67267228 3.66236452,2.67267228 3.64487425,2.67267228 Z" id="path-1"></path>
    </defs>
    <g id="Desktop" stroke="none" stroke-width="1" fill="none" fill-rule="evenodd">
        <g id="Find-a-center03" transform="translate(-29.000000, -561.000000)">
            <g id="Expandable-view" transform="translate(30.000000, 437.000000)">
                <g id="Details" transform="translate(0.000000, 55.000000)">
                    <g id="Tel" transform="translate(0.000000, 68.000000)">
                        <mask id="mask-2" fill="white">
                            <use xlink:href="#path-1"></use>
                        </mask>
                        <use id="Shape" stroke="#000000" stroke-width="0.7" fill="#000000" fill-rule="nonzero" xlink:href="#path-1"></use>
                    </g>
                </g>
            </g>
        </g>
    </g>
</svg>