<?xml version="1.0" encoding="UTF-8" standalone="no"?>
<svg width="18px" height="33px" viewBox="0 0 18 33" version="1.1" xmlns="http://www.w3.org/2000/svg" xmlns:xlink="http://www.w3.org/1999/xlink">
    <!-- Generator: sketchtool 49.1 (51147) - http://www.bohemiancoding.com/sketch -->
    <title>AE07B2A0-445A-4AB8-BF26-8EA6ED75FDB3</title>
    <desc>Created with sketchtool.</desc>
    <defs></defs>
    <g id="Desktop" stroke="none" stroke-width="1" fill="none" fill-rule="evenodd">
        <g id="Find-a-center03" transform="translate(-436.000000, -646.000000)" fill="#D40618" fill-rule="nonzero">
            <g id="Expandable-view" transform="translate(30.000000, 437.000000)">
                <g id="Services-Icons" transform="translate(0.000000, 187.000000)">
                    <g id="Group-5" transform="translate(10.000000, 22.000000)">
                        <g id="Body&amp;Paint" transform="translate(364.000000, 0.000000)">
                            <g id="brush" transform="translate(32.000000, 0.000000)">
                                <path d="M17.4065934,0.523170732 C17.1296703,0.241463415 16.6945055,0.0402439024 16.2593407,0.0402439024 L13.8065934,0.0402439024 C13.4901099,0.0402439024 13.2527473,0.281707317 13.1736264,0.563414634 L12.7384615,3.2597561 L12.3428571,5.79512195 L11.9472527,3.2597561 L11.5120879,0.603658537 C11.4725275,0.281707317 11.1956044,0 10.8791209,0 L6.76483516,0 C6.48791209,0 6.21098901,0.201219512 6.17142857,0.523170732 L5.93406593,1.7304878 L5.53846154,3.70243902 L5.14285714,1.7304878 L4.90549451,0.563414634 C4.86593407,0.241463415 4.58901099,0 4.27252747,0 L1.66153846,0 C1.22637363,0 0.87032967,0.16097561 0.553846154,0.442682927 L0.514285714,0.482926829 C0.237362637,0.764634146 0.0395604396,1.20731707 0.0395604396,1.65 L0.0395604396,14.5280488 L0.0395604396,16.5 L0,16.5 C0,17.0634146 0.237362637,17.5865854 0.593406593,17.9487805 C0.949450549,18.3109756 1.46373626,18.552439 2.01758242,18.552439 L6.72527473,18.552439 L5.34065934,29.2170732 C5.34065934,29.3780488 5.3010989,29.4987805 5.3010989,29.6195122 C5.3010989,30.504878 5.6967033,31.2695122 6.29010989,31.8731707 C6.84395604,32.4365854 7.63516484,32.8390244 8.46593407,32.9597561 C8.62417582,33 8.78241758,33 8.94065934,33 C9.0989011,33 9.25714286,33 9.41538462,32.9597561 C10.2461538,32.8390244 11.0373626,32.4365854 11.5912088,31.8731707 C12.1846154,31.2695122 12.5802198,30.504878 12.5802198,29.6195122 C12.5802198,29.4987805 12.5802198,29.3780488 12.5406593,29.2170732 L11.156044,18.552439 L15.8637363,18.552439 C16.4175824,18.552439 16.9318681,18.3109756 17.2879121,17.9487805 C17.643956,17.5865854 17.8813187,17.0634146 17.8813187,16.5 L17.8813187,14.5682927 L17.8813187,1.6902439 C17.8813187,1.24756098 17.6835165,0.845121951 17.4065934,0.523170732 Z M11.3142857,29.3780488 C11.3142857,29.4585366 11.3142857,29.4987805 11.3142857,29.6195122 C11.3142857,30.1426829 11.0769231,30.5853659 10.7208791,30.947561 C10.3252747,31.35 9.81098901,31.5914634 9.25714286,31.6719512 C9.17802198,31.6719512 9.05934066,31.6719512 8.94065934,31.6719512 C8.82197802,31.6719512 8.7032967,31.6719512 8.62417582,31.6719512 C8.07032967,31.5914634 7.55604396,31.35 7.16043956,30.947561 C6.8043956,30.5853659 6.56703297,30.102439 6.56703297,29.5792683 C6.56703297,29.4987805 6.56703297,29.4182927 6.56703297,29.3378049 L7.99120879,18.5121951 L9.89010989,18.5121951 L11.3142857,29.3780488 Z M16.378022,17.0634146 C16.2593407,17.1841463 16.0615385,17.304878 15.8241758,17.304878 L10.443956,17.304878 L7.43736264,17.304878 L2.01758242,17.304878 C1.81978022,17.304878 1.62197802,17.2243902 1.46373626,17.0634146 C1.34505495,16.9426829 1.22637363,16.7414634 1.22637363,16.5 L1.22637363,15.2121951 L16.5758242,15.2121951 L16.5758242,16.5 L16.6153846,16.5 C16.6153846,16.7012195 16.5362637,16.902439 16.378022,17.0634146 Z M16.6549451,13.9646341 L1.26593407,13.9646341 L1.26593407,1.6902439 C1.26593407,1.6097561 1.30549451,1.48902439 1.38461538,1.44878049 C1.46373626,1.40853659 1.54285714,1.36829268 1.62197802,1.36829268 L3.71868132,1.36829268 L3.87692308,2.05243902 L4.90549451,6.96219512 C4.98461538,7.32439024 5.3010989,7.52560976 5.65714286,7.44512195 C5.89450549,7.40487805 6.09230769,7.20365854 6.13186813,6.96219512 L7.12087912,2.01219512 L7.27912088,1.32804878 L10.4043956,1.32804878 L10.7604396,3.50121951 L11.789011,9.9 C11.8285714,10.2621951 12.1846154,10.4634146 12.5010989,10.4231707 C12.778022,10.3829268 12.9758242,10.1414634 13.0153846,9.9 L14.043956,3.54146341 L14.4,1.36829268 L16.2989011,1.36829268 C16.378022,1.36829268 16.4967033,1.40853659 16.5362637,1.48902439 C16.6153846,1.5695122 16.6549451,1.65 16.6549451,1.7304878 L16.6549451,13.9646341 Z" id="Shape"></path>
                                <ellipse id="Oval" cx="8.90989011" cy="28.9256098" rx="1" ry="1"></ellipse>
                            </g>
                        </g>
                    </g>
                </g>
            </g>
        </g>
    </g>
</svg>