<?xml version="1.0" encoding="UTF-8" standalone="no"?>
<svg width="21px" height="21px" viewBox="0 0 21 21" version="1.1" xmlns="http://www.w3.org/2000/svg" xmlns:xlink="http://www.w3.org/1999/xlink">
    <!-- Generator: sketchtool 49.1 (51147) - http://www.bohemiancoding.com/sketch -->
    <title>75AA9134-5917-4546-A219-2CDA17CDC927</title>
    <desc>Created with sketchtool.</desc>
    <defs></defs>
    <g id="Desktop" stroke="none" stroke-width="1" fill="none" fill-rule="evenodd" opacity="0.8">
        <g id="Find-a-center01" transform="translate(-411.000000, -352.000000)" fill="#888888" fill-rule="nonzero" stroke="#888888" stroke-width="0.5">
            <g id="Search" transform="translate(0.000000, 328.000000)">
                <path d="M430.896173,43.3926859 L425.360434,37.8493751 C426.772403,36.4858777 427.647153,34.6061813 427.647153,32.5331345 C427.647153,28.3791489 424.13772,25 419.823577,25 C415.509433,25 412,28.3791489 412,32.5331345 C412,36.68712 415.509433,40.0662689 419.823577,40.0662689 C421.717255,40.0662689 423.455206,39.4144734 424.809803,38.3329306 L430.358954,43.8898727 C430.431974,43.9634105 430.529582,44 430.627563,44 C430.720701,44 430.813466,43.966639 430.885741,43.8999169 C431.034017,43.7625269 431.038487,43.5354567 430.896173,43.3926859 Z M419.823577,39.3488275 C415.920357,39.3488275 412.745103,36.2914511 412.745103,32.5331345 C412.745103,28.7748178 415.920357,25.7174414 419.823577,25.7174414 C423.726796,25.7174414 426.902051,28.7748178 426.902051,32.5331345 C426.902051,36.2914511 423.726424,39.3488275 419.823577,39.3488275 Z" id="search"></path>
            </g>
        </g>
    </g>
</svg>