<?xml version="1.0" encoding="UTF-8" standalone="no"?>
<svg width="34px" height="51px" viewBox="0 0 34 51" version="1.1" xmlns="http://www.w3.org/2000/svg" xmlns:xlink="http://www.w3.org/1999/xlink">
    <!-- Generator: sketchtool 49.1 (51147) - http://www.bohemiancoding.com/sketch -->
    <title>52CD8DBE-0834-4CF5-85D2-B88979F53F6E</title>
    <desc>Created with sketchtool.</desc>
    <defs>
        <radialGradient cx="50%" cy="56.3441685%" fx="50%" fy="56.3441685%" r="56.1802455%" gradientTransform="translate(0.500000,0.563442),scale(0.259259,1.000000),rotate(90.000000),scale(1.000000,3.380992),translate(-0.500000,-0.563442)" id="radialGradient-1">
            <stop stop-color="#000000" offset="0%"></stop>
            <stop stop-color="#000000" stop-opacity="0" offset="100%"></stop>
        </radialGradient>
        <filter x="-19.7%" y="-76.2%" width="139.5%" height="252.3%" filterUnits="objectBoundingBox" id="filter-2">
            <feGaussianBlur stdDeviation="1.77734375 0" in="SourceGraphic"></feGaussianBlur>
        </filter>
        <radialGradient cx="50%" cy="56.3441685%" fx="50%" fy="56.3441685%" r="56.1802455%" gradientTransform="translate(0.500000,0.563442),scale(0.230769,1.000000),rotate(90.000000),scale(1.000000,3.380992),translate(-0.500000,-0.563442)" id="radialGradient-3">
            <stop stop-color="#000000" offset="0%"></stop>
            <stop stop-color="#000000" stop-opacity="0" offset="100%"></stop>
        </radialGradient>
        <filter x="-41.0%" y="-177.7%" width="182.0%" height="455.5%" filterUnits="objectBoundingBox" id="filter-4">
            <feGaussianBlur stdDeviation="1.77734375 0" in="SourceGraphic"></feGaussianBlur>
        </filter>
    </defs>
    <g id="Desktop" stroke="none" stroke-width="1" fill="none" fill-rule="evenodd">
        <g id="Find-a-center03" transform="translate(-812.000000, -676.000000)">
            <g id="Pin" transform="translate(158.000000, 480.000000)">
                <g transform="translate(654.000000, 196.000000)">
                    <path d="M17,0 C7.61050094,0 0,7.83787201 0,17.508995 C0,33.4426908 17,48 17,48 C17,48 34,33.4418631 34,17.508995 C34,7.8381479 26.3889633,0 17,0" id="find-a-center" fill="#D40618"></path>
                    <path d="M17.7280126,19.0916819 C18.5890677,19.0916819 19.2916031,17.2996819 19.3289732,15.0519654 L19.3334929,15.0536189 C18.814611,15.1016819 18.2778709,15.1265953 17.7280126,15.1265953 C17.1781543,15.1265953 16.6414142,15.1016819 16.1225323,15.0536189 L16.127052,15.0519654 C16.164422,17.2996819 16.8668472,19.0916819 17.7280126,19.0916819 Z M17.7280126,13.3445165 C18.2403906,13.3445165 18.7384378,13.3228 19.2150992,13.2808 L19.2146583,13.2812409 C18.9772094,11.7295559 18.4010047,10.6342488 17.7280126,10.6342488 C17.0548,10.6342488 16.4788157,11.7295559 16.2413669,13.2812409 L16.2407055,13.2808 C16.7173669,13.3228 17.2156346,13.3445165 17.7280126,13.3445165 Z M18.4204063,21.2623433 C23.2230677,21.0128787 27.0093512,18.1863118 27.0093512,14.7371307 C27.0093512,13.564989 26.5721543,12.465052 25.8064535,11.5131622 L25.7971937,11.494863 C25.7390992,13.0881071 23.4790362,14.4355244 20.3497606,14.9272882 L20.350863,14.9255244 C20.3529575,15.0299181 20.3542803,15.1346425 20.3542803,15.2409102 C20.3542803,18.1300913 19.5249732,20.5613512 18.400674,21.2663118 L18.4204063,21.2623433 Z M17.7280126,9.00848504 C18.8717134,9.00848504 19.8446583,10.7436031 20.2051307,13.1647213 L20.2063433,13.160863 C22.4320126,12.8145008 23.9897606,12.0155087 23.9897606,11.0857764 C23.9897606,9.83790236 21.1860126,8.82725669 17.7280126,8.82725669 C14.2700126,8.82725669 11.466485,9.83790236 11.466485,11.0857764 C11.466485,12.0155087 13.0240126,12.8145008 15.2494614,13.160863 L15.2508945,13.1647213 C15.6115874,10.7436031 16.5845323,9.00848504 17.7280126,9.00848504 Z M7.00004409,14.9888 C7.00004409,11.1294299 11.8030362,8.00004409 17.7280126,8.00004409 C23.652548,8.00004409 28.4557606,11.1294299 28.4557606,14.9888 C28.4557606,18.8481701 23.652548,21.9776661 17.7280126,21.9776661 C11.8030362,21.9776661 7.00004409,18.8481701 7.00004409,14.9888 Z M17.0553512,21.2663118 C15.9308315,20.5613512 15.1019654,18.1300913 15.1019654,15.2409102 C15.1019654,15.1346425 15.1028472,15.0299181 15.1049417,14.9255244 L15.1062646,14.9272882 C11.9772094,14.4355244 9.71648504,13.0881071 9.65861102,11.494863 L9.64935118,11.5131622 C8.88376063,12.465052 8.44689449,13.564989 8.44689449,14.7371307 C8.44689449,18.1863118 12.2329575,21.0128787 17.0353984,21.2623433 L17.0553512,21.2663118 Z" id="Fill-1" fill="#FFFFFF"></path>
                    <ellipse id="Oval-3" fill="url(#radialGradient-1)" opacity="0.2" filter="url(#filter-2)" cx="16.5" cy="47.5" rx="13.5" ry="3.5"></ellipse>
                    <ellipse id="Oval-3" fill="url(#radialGradient-3)" opacity="0.2" filter="url(#filter-4)" cx="16.5" cy="47.5" rx="6.5" ry="1.5"></ellipse>
                </g>
            </g>
        </g>
    </g>
</svg>