<?xml version="1.0" encoding="UTF-8" standalone="no"?>
<svg width="80px" height="80px" viewBox="0 0 80 80" version="1.1" xmlns="http://www.w3.org/2000/svg" xmlns:xlink="http://www.w3.org/1999/xlink">
    <!-- Generator: sketchtool 48.2 (47327) - http://www.bohemiancoding.com/sketch -->
    <title>EEE052FA-8EDA-4020-BC49-EFD1B0CD8D62</title>
    <desc>Created with sketchtool.</desc>
    <defs></defs>
    <g id="Desktop-Home-page-3" stroke="none" stroke-width="1" fill="none" fill-rule="evenodd" transform="translate(-680.000000, -403.000000)">
        <g id="Video-template" transform="translate(0.000000, 103.000000)" fill="#FFFFFF" fill-rule="nonzero">
            <g id="Play-b-+-copy" transform="translate(385.000000, 300.000000)">
                <g id="play-button-copy" transform="translate(295.000000, 0.000000)">
                    <path d="M40,0 C17.9057592,0 0,17.9057592 0,40 C0,62.0942408 17.9057592,80 40,80 C62.0942408,80 80,62.0942408 80,40 C80,17.9057592 62.0942408,0 40,0 Z M40,76.1256545 C20.104712,76.1256545 3.87434555,59.895288 3.87434555,40 C3.87434555,20.104712 20.104712,3.87434555 40,3.87434555 C59.895288,3.87434555 76.1256545,20.104712 76.1256545,40 C76.1256545,59.895288 60,76.1256545 40,76.1256545 Z M55.6020942,37.2774869 C55.4973822,37.2774869 55.4973822,37.1727749 55.3926702,37.1727749 L33.1937173,24.3979058 C32.460733,23.9790576 31.8324607,23.7696335 31.0994764,23.7696335 C29.6335079,23.7696335 28.0628272,24.921466 28.0628272,27.434555 L28.0628272,52.565445 C28.1675393,55.078534 29.6335079,56.2303665 31.2041885,56.2303665 C31.9371728,56.2303665 32.6701571,56.0209424 33.4031414,55.6020942 L54.6596859,43.3507853 C56.2303665,42.513089 56.9633508,41.3612565 57.0680628,40.104712 C57.1727749,39.5811518 56.9633508,38.3246073 55.6020942,37.2774869 Z M31.9371728,52.0418848 L31.9371728,28.1675393 L52.565445,40.104712 L31.9371728,52.0418848 Z" id="Shape"></path>
                </g>
            </g>
        </g>
    </g>
</svg>