<?xml version="1.0" encoding="UTF-8" standalone="no"?>
<svg width="15px" height="15px" viewBox="0 0 15 15" version="1.1" xmlns="http://www.w3.org/2000/svg" xmlns:xlink="http://www.w3.org/1999/xlink">
    <!-- Generator: sketchtool 48.2 (47327) - http://www.bohemiancoding.com/sketch -->
    <title>2E850FD6-CCAC-4507-A2E4-B6A5F7F2A298</title>
    <desc>Created with sketchtool.</desc>
    <defs></defs>
    <g id="Navigation-/-main" stroke="none" stroke-width="1" fill="none" fill-rule="evenodd" transform="translate(-134.000000, -14.000000)">
        <g id="Navigation" fill="#888888" fill-rule="nonzero" stroke="#888888" stroke-width="0.5">
            <g id="upper-nav">
                <g id="Search" transform="translate(135.000000, 14.000000)">
                    <path d="M12.9289604,13.5844693 L9.14134927,9.79167768 C10.1074335,8.85875845 10.7059469,7.57265038 10.7059469,6.1542499 C10.7059469,3.31204924 8.30475599,1 5.35297347,1 C2.40119096,1 0,3.31204924 0,6.1542499 C0,8.99645055 2.40119096,11.3084998 5.35297347,11.3084998 C6.64864796,11.3084998 7.83777278,10.8625345 8.7646019,10.1225314 L12.5613895,13.9246498 C12.6113506,13.9749651 12.6781353,14 12.7451749,14 C12.8089008,14 12.8723718,13.977174 12.9218231,13.9315221 C13.0232747,13.8375184 13.0263335,13.6821546 12.9289604,13.5844693 Z M5.35297347,10.8176188 C2.68234952,10.8176188 0.509806997,8.72572971 0.509806997,6.1542499 C0.509806997,3.58277008 2.68234952,1.49088094 5.35297347,1.49088094 C8.02359743,1.49088094 10.1961399,3.58277008 10.1961399,6.1542499 C10.1961399,8.72572971 8.02334253,10.8176188 5.35297347,10.8176188 Z" id="search"></path>
                </g>
            </g>
        </g>
    </g>
</svg>