<?xml version="1.0" encoding="UTF-8" standalone="no"?>
<svg width="52px" height="52px" viewBox="0 0 52 52" version="1.1" xmlns="http://www.w3.org/2000/svg" xmlns:xlink="http://www.w3.org/1999/xlink">
    <!-- Generator: sketchtool 49.1 (51147) - http://www.bohemiancoding.com/sketch -->
    <title>280E46CD-1198-4638-9603-ACAE491E1E6F</title>
    <desc>Created with sketchtool.</desc>
    <defs></defs>
    <g id="Desktop" stroke="none" stroke-width="1" fill="none" fill-rule="evenodd">
        <g id="Find-a-center---no-search-results" transform="translate(-236.000000, -496.000000)" fill="#ECEBE9" fill-rule="nonzero" stroke="#ECEBE9" stroke-width="0.5">
            <g id="Search" transform="translate(0.000000, 328.000000)">
                <g id="No-results" transform="translate(70.000000, 169.000000)">
                    <path d="M216.726771,48.4018049 L202.159036,33.8141449 C205.874744,30.225994 208.176719,25.2794245 208.176719,19.8240381 C208.176719,8.89249707 198.941369,0 187.58836,0 C176.23535,0 167,8.89249707 167,19.8240381 C167,30.7555791 176.23535,39.6480761 187.58836,39.6480761 C192.571723,39.6480761 197.14528,37.9328248 200.710007,35.0866594 L215.313037,49.7101914 C215.505195,49.9037118 215.762059,50 216.019904,50 C216.265003,50 216.509122,49.9122078 216.699319,49.7366235 C217.089518,49.3750708 217.101283,48.7775177 216.726771,48.4018049 Z M187.58836,37.7600725 C177.316729,37.7600725 168.960796,29.7143451 168.960796,19.8240381 C168.960796,9.93373107 177.316729,1.88800362 187.58836,1.88800362 C197.85999,1.88800362 206.215923,9.93373107 206.215923,19.8240381 C206.215923,29.7143451 197.85901,37.7600725 187.58836,37.7600725 Z" id="search"></path>
                </g>
            </g>
        </g>
    </g>
</svg>