<?xml version="1.0" encoding="UTF-8" standalone="no"?>
<svg width="22px" height="22px" viewBox="0 0 22 22" version="1.1" xmlns="http://www.w3.org/2000/svg" xmlns:xlink="http://www.w3.org/1999/xlink">
    <!-- Generator: sketchtool 48.2 (47327) - http://www.bohemiancoding.com/sketch -->
    <title>04111E1E-FE17-4AEC-BF6D-2C51D451AD69</title>
    <desc>Created with sketchtool.</desc>
    <defs></defs>
    <g id="Mobile" stroke="none" stroke-width="1" fill="none" fill-rule="evenodd" transform="translate(-316.000000, -487.000000)">
        <g id="Group-5" transform="translate(297.000000, 365.000000)" fill="#888888" fill-rule="nonzero" stroke="#888888" stroke-width="0.5">
            <g id="Search" transform="translate(0.000000, 108.000000)">
                <path d="M39.8907082,34.360722 L34.0636143,28.525658 C35.5498977,27.0903976 36.4706876,25.1117698 36.4706876,22.9296152 C36.4706876,18.5569988 32.7765477,15 28.2353438,15 C23.6941399,15 20,18.5569988 20,22.9296152 C20,27.3022316 23.6941399,30.8592304 28.2353438,30.8592304 C30.2286892,30.8592304 32.058112,30.1731299 33.4840029,29.0346637 L39.3252146,34.8840766 C39.4020778,34.9614847 39.5048236,35 39.6079614,35 C39.7060012,35 39.8036489,34.9648831 39.8797278,34.8946494 C40.0358072,34.7500283 40.0405131,34.5110071 39.8907082,34.360722 Z M28.2353438,30.104029 C24.1266916,30.104029 20.7843185,26.885738 20.7843185,22.9296152 C20.7843185,18.9734924 24.1266916,15.7552014 28.2353438,15.7552014 C32.343996,15.7552014 35.6863692,18.9734924 35.6863692,22.9296152 C35.6863692,26.885738 32.3436039,30.104029 28.2353438,30.104029 Z" id="search"></path>
            </g>
        </g>
    </g>
</svg>